<?xml version="1.0" encoding="utf-8"?>
<!-- Generator: Adobe Illustrator 25.4.1, SVG Export Plug-In . SVG Version: 6.00 Build 0)  -->
<svg version="1.1" id="Layer_1" xmlns="http://www.w3.org/2000/svg" xmlns:xlink="http://www.w3.org/1999/xlink" x="0px" y="0px"
	 viewBox="0 0 348 104" style="enable-background:new 0 0 348 104;" xml:space="preserve">
<style type="text/css">
	.st0{fill:#29414E;}
	.st1{fill:#E53B33;}
	.st2{fill:none;stroke:#29414E;stroke-miterlimit:10;}
	.st3{fill:none;stroke:#29414E;stroke-width:0.5679;stroke-miterlimit:10;}
	.st4{fill:#AA8645;}
</style>
<g>
	<g>
		<path class="st0" d="M46.4,33.7c-5.9,0-12,4-12,11.7c0,7.7,6.1,11.7,12,11.7c5.9,0,12-4,12-11.7C58.4,37.8,52.3,33.7,46.4,33.7
			 M46.4,51.1c-2.9,0-5.3-2.2-5.3-5.6c0-3.5,2.4-5.6,5.3-5.6c2.9,0,5.3,2.2,5.3,5.6C51.7,48.9,49.3,51.1,46.4,51.1"/>
		<path class="st1" d="M101.3,33.7v1.1c-0.9-0.4-1.8-0.7-2.7-0.9c-0.4-0.1-0.8-0.1-1.3-0.2c-0.4,0-0.8-0.1-1.1-0.1
			c-0.1,0-0.1,0-0.2,0c-3.1,0-6.3,1.1-8.6,3.3l0,0l-4.9,4.8l-7.7,7.6c0,0,0,0,0,0c-0.7,0.7-1.5,1.1-2.5,1.4
			c-0.4,0.1-0.8,0.1-1.2,0.2c0,0,0,0,0,0c-2.8,0-0.2,0,0,0h-5.3V39.8H71c2.9,0,5.3,2.2,5.3,5.6c0,0.1,0,0.3,0,0.4l5.1-5l0.5-0.5
			c-2-4.4-6.5-6.6-10.9-6.6h-12v23.4h12c0.7,0,1.5-0.1,2.2-0.2c0.3-0.1,0.6-0.1,0.9-0.2c0.3-0.1,0.6-0.1,0.8-0.2
			c1.7-0.5,3.2-1.4,4.5-2.6l0.3-0.3l4.7-4.6c0,0,7.6-7.8,8.5-8.4c1.1-0.7,2.5-0.7,2.9-0.8c0,0,0,0,0,0c2.9,0,5.3,2.2,5.3,5.6
			c0,3.5-2.4,5.6-5.3,5.6c-2.9,0-5.3-2.2-5.3-5.6c0-0.1,0-0.3,0-0.4l-5.1,5l-0.5,0.5c2,4.4,6.5,6.6,10.9,6.6c1.8,0,3.7-0.4,5.3-1.1
			v1.1h6.6V33.7H101.3z"/>
		<polygon class="st0" points="126.8,33.7 121.1,48.4 115.3,33.7 108.5,33.7 117.9,56 113.8,65.2 120.4,65.2 124.2,56.3 133.6,33.7 
					"/>
		<polygon class="st0" points="37.6,30.1 17.2,30.1 17.2,36.2 24,36.2 24,56.9 30.8,56.9 30.8,36.2 37.6,36.2 		"/>
	</g>
	<g>
		<path class="st0" d="M17.8,73.4h1.9c0.8,0,1.4,0.5,1.4,1.2c0,0.5-0.3,0.8-0.6,1c0.5,0.1,0.9,0.5,0.9,1.3c0,0.9-0.6,1.5-1.7,1.5
			h-1.8V73.4z M19.4,75.3c0.4,0,0.5-0.2,0.5-0.5c0-0.3-0.2-0.5-0.5-0.5h-0.5v0.9H19.4z M19.5,77.4c0.5,0,0.7-0.2,0.7-0.6
			c0-0.4-0.2-0.6-0.7-0.6h-0.6v1.3H19.5z"/>
		<polygon class="st0" points="25.6,76.4 23.8,76.4 23.8,78.3 22.7,78.3 22.7,73.4 23.8,73.4 23.8,75.3 25.6,75.3 25.6,73.4 
			26.7,73.4 26.7,78.3 25.6,78.3 		"/>
		<path class="st0" d="M31,73.4l1.9,4.9h-1.2l-0.3-0.8h-2l-0.3,0.8H28l1.9-4.9H31z M31.1,76.5l-0.6-1.8l-0.6,1.8H31.1z"/>
		<path class="st0" d="M34.1,73.4H36c1.3,0,2.4,1,2.4,2.5c0,1.5-1,2.5-2.4,2.5h-1.9V73.4z M36,77.3c0.8,0,1.3-0.6,1.3-1.4
			c0-0.8-0.4-1.4-1.3-1.4h-0.8v2.9H36z"/>
		<path class="st0" d="M41.5,76.7h-0.6v1.6h-1.1v-4.9h1.8c1.1,0,1.8,0.7,1.8,1.7c0,0.7-0.3,1.2-0.9,1.4l1.1,1.8h-1.2L41.5,76.7z
			 M41.4,75.8c0.4,0,0.8-0.2,0.8-0.7c0-0.5-0.3-0.7-0.8-0.7h-0.6v1.4H41.4z"/>
		<polygon class="st0" points="44.9,73.4 47.8,73.4 47.8,74.4 46,74.4 46,75.3 47.5,75.3 47.5,76.3 46,76.3 46,77.3 47.9,77.3 
			47.9,78.3 44.9,78.3 		"/>
		<path class="st0" d="M49.1,77.2l0.9-0.4c0.1,0.3,0.4,0.7,0.9,0.7c0.3,0,0.6-0.2,0.6-0.5c0-0.3-0.2-0.4-0.6-0.6l-0.3-0.1
			c-0.7-0.3-1.3-0.6-1.3-1.4c0-0.9,0.7-1.4,1.6-1.4c0.9,0,1.4,0.5,1.6,1.1l-0.8,0.5c-0.2-0.4-0.5-0.5-0.8-0.5
			c-0.3,0-0.5,0.1-0.5,0.4c0,0.2,0.1,0.4,0.6,0.6l0.3,0.1c0.9,0.4,1.3,0.8,1.3,1.4c0,1-0.9,1.5-1.8,1.5C50,78.4,49.3,77.9,49.1,77.2
			"/>
		<polygon class="st0" points="56.9,76.4 55,76.4 55,78.3 53.9,78.3 53.9,73.4 55,73.4 55,75.3 56.9,75.3 56.9,73.4 58,73.4 
			58,78.3 56.9,78.3 		"/>
		<path class="st0" d="M64.7,77.9c-0.2,0.2-0.4,0.3-0.7,0.4c-0.2,0.1-0.5,0.1-0.8,0.1c-0.2,0-0.4,0-0.6-0.1
			c-0.2-0.1-0.4-0.2-0.5-0.3c-0.1-0.1-0.3-0.3-0.3-0.4c-0.1-0.2-0.1-0.4-0.1-0.6v0c0-0.3,0.1-0.6,0.2-0.8c0.2-0.2,0.4-0.4,0.7-0.5
			c-0.1-0.2-0.2-0.3-0.3-0.5c-0.1-0.2-0.1-0.3-0.1-0.5v0c0-0.2,0-0.3,0.1-0.5c0.1-0.2,0.2-0.3,0.3-0.4c0.1-0.1,0.3-0.2,0.5-0.3
			c0.2-0.1,0.4-0.1,0.6-0.1c0.2,0,0.4,0,0.6,0.1c0.2,0.1,0.3,0.1,0.4,0.3c0.1,0.1,0.2,0.2,0.3,0.4c0.1,0.1,0.1,0.3,0.1,0.5v0
			c0,0.2,0,0.3-0.1,0.4c0,0.1-0.1,0.2-0.2,0.4c-0.1,0.1-0.2,0.2-0.3,0.3c-0.1,0.1-0.3,0.1-0.4,0.2l0.6,0.6c0.1-0.1,0.2-0.3,0.2-0.4
			c0.1-0.1,0.2-0.3,0.2-0.4l0.8,0.4c-0.1,0.2-0.2,0.3-0.3,0.5c-0.1,0.2-0.2,0.3-0.3,0.5l0.7,0.7l-0.8,0.6L64.7,77.9z M63.4,77.5
			c0.1,0,0.2,0,0.4-0.1c0.1,0,0.2-0.1,0.3-0.2l-0.9-0.9c-0.2,0.1-0.3,0.2-0.3,0.3c-0.1,0.1-0.1,0.2-0.1,0.3v0c0,0.2,0.1,0.3,0.2,0.4
			C63,77.5,63.2,77.5,63.4,77.5 M63.5,75.3c0.2-0.1,0.4-0.2,0.5-0.3c0.1-0.1,0.2-0.2,0.2-0.4v0c0-0.1,0-0.2-0.1-0.3
			c-0.1-0.1-0.2-0.1-0.3-0.1c-0.1,0-0.3,0-0.3,0.1c-0.1,0.1-0.1,0.2-0.1,0.4v0c0,0.1,0,0.2,0.1,0.3C63.3,75.1,63.4,75.2,63.5,75.3"
			/>
		<path class="st0" d="M69.7,73.4h1.9c0.8,0,1.4,0.5,1.4,1.2c0,0.5-0.3,0.8-0.6,1c0.5,0.1,0.9,0.5,0.9,1.3c0,0.9-0.6,1.5-1.7,1.5
			h-1.8V73.4z M71.3,75.3c0.4,0,0.5-0.2,0.5-0.5c0-0.3-0.2-0.5-0.5-0.5h-0.5v0.9H71.3z M71.4,77.4c0.5,0,0.7-0.2,0.7-0.6
			c0-0.4-0.2-0.6-0.7-0.6h-0.6v1.3H71.4z"/>
		<polygon class="st0" points="77.5,76.4 75.7,76.4 75.7,78.3 74.6,78.3 74.6,73.4 75.7,73.4 75.7,75.3 77.5,75.3 77.5,73.4 
			78.6,73.4 78.6,78.3 77.5,78.3 		"/>
		<path class="st0" d="M82.9,73.4l1.9,4.9h-1.2l-0.3-0.8h-2L81,78.3h-1.2l1.9-4.9H82.9z M82.9,76.5l-0.6-1.8l-0.6,1.8H82.9z"/>
		<polygon class="st0" points="84.8,73.4 86,73.4 87.2,77 88.5,73.4 89.7,73.4 87.8,78.3 86.7,78.3 		"/>
		<polygon class="st0" points="91,73.4 93.8,73.4 93.8,74.4 92.1,74.4 92.1,75.3 93.5,75.3 93.5,76.3 92.1,76.3 92.1,77.3 
			93.9,77.3 93.9,78.3 91,78.3 		"/>
		<path class="st0" d="M95.1,77.2l0.9-0.4c0.1,0.3,0.4,0.7,0.9,0.7c0.3,0,0.6-0.2,0.6-0.5c0-0.3-0.2-0.4-0.6-0.6l-0.3-0.1
			c-0.7-0.3-1.3-0.6-1.3-1.4c0-0.9,0.7-1.4,1.6-1.4c0.9,0,1.4,0.5,1.6,1.1l-0.8,0.5c-0.2-0.4-0.5-0.5-0.8-0.5
			c-0.3,0-0.5,0.1-0.5,0.4c0,0.2,0.1,0.4,0.6,0.6l0.3,0.1c0.9,0.4,1.3,0.8,1.3,1.4c0,1-0.9,1.5-1.8,1.5C96,78.4,95.3,77.9,95.1,77.2
			"/>
		<polygon class="st0" points="102.9,76.4 101,76.4 101,78.3 99.9,78.3 99.9,73.4 101,73.4 101,75.3 102.9,75.3 102.9,73.4 
			104,73.4 104,78.3 102.9,78.3 		"/>
		<path class="st0" d="M107.7,75.9c0-1.5,1.2-2.5,2.6-2.5c0.7,0,1.5,0.3,2,1.1l-0.8,0.6c-0.3-0.4-0.7-0.6-1.2-0.6
			c-0.8,0-1.5,0.6-1.5,1.5c0,0.9,0.6,1.5,1.5,1.5c0.5,0,1-0.2,1.2-0.9h-1.1v-0.9h2.2c0.3,1.8-0.9,2.8-2.3,2.8
			C108.9,78.4,107.7,77.4,107.7,75.9"/>
		<path class="st0" d="M115.6,76.7H115v1.6h-1.1v-4.9h1.8c1.1,0,1.8,0.7,1.8,1.7c0,0.7-0.3,1.2-0.9,1.4l1.1,1.8h-1.2L115.6,76.7z
			 M115.6,75.8c0.4,0,0.8-0.2,0.8-0.7c0-0.5-0.3-0.7-0.8-0.7H115v1.4H115.6z"/>
		<path class="st0" d="M118.8,75.9c0-1.5,1.2-2.5,2.6-2.5c1.4,0,2.6,1,2.6,2.5c0,1.5-1.2,2.5-2.6,2.5
			C119.9,78.4,118.8,77.4,118.8,75.9 M121.3,77.4c0.8,0,1.4-0.6,1.4-1.5c0-0.9-0.6-1.5-1.4-1.5c-0.8,0-1.4,0.6-1.4,1.5
			C119.9,76.8,120.5,77.4,121.3,77.4"/>
		<path class="st0" d="M125.3,76.5v-3.1h1.1v3.1c0,0.7,0.5,0.9,0.8,0.9s0.8-0.2,0.8-0.9v-3.1h1.1v3.1c0,1.3-0.9,1.9-1.9,1.9
			C126.1,78.4,125.3,77.7,125.3,76.5"/>
		<path class="st0" d="M130.6,73.4h1.8c1.1,0,1.8,0.7,1.8,1.7c0,1-0.7,1.7-1.8,1.7h-0.7v1.5h-1.1V73.4z M132.3,75.8
			c0.4,0,0.8-0.2,0.8-0.7c0-0.5-0.3-0.7-0.8-0.7h-0.6v1.4H132.3z"/>
	</g>
	<line class="st2" x1="138.1" y1="10.8" x2="138.1" y2="93.2"/>
	<line class="st3" x1="157.6" y1="78.3" x2="330.8" y2="78.3"/>
	<g>
		<path class="st4" d="M159.5,72.8V38.3h21.4V40h-17.3v14.4h16.4v1.7h-16.4v15h18v1.7H159.5z"/>
		<path class="st4" d="M195.8,72.8V38.3h4.1v32.8h13.9v1.7H195.8z"/>
		<path class="st4" d="M237.3,37.3h0.1l15.4,35.5h-4.2l-4.6-10.8H229l-4.7,10.8h-2.5L237.3,37.3z M229.7,60.4h13.5l-6.7-16
			L229.7,60.4z"/>
		<path class="st4" d="M265.3,72.8V38.3h10.9c9.2,0,14,3.9,14,9.6c0,4.6-3.5,8.4-11.9,8.4h-0.8l12.6,16.5h-5.1l-13.7-18h2.8
			c6.2,0,11.6-1.5,11.6-6.9c0-6.4-5.5-8.3-10-8.3h-6.6v33.1H265.3z"/>
		<path class="st4" d="M314.7,37.3h0.1l15.4,35.5h-4.2l-4.6-10.8h-15.1l-4.7,10.8h-2.5L314.7,37.3z M307.1,60.4h13.5l-6.7-16
			L307.1,60.4z"/>
	</g>
	<g>
		<path class="st4" d="M178.6,28.6c3.7,0,6.7-3,6.7-6.7c0-3.7-3-6.7-6.7-6.7c-0.2,0-0.4,0-0.5,0c-0.4-3.3-3.2-5.8-6.6-5.8
			c-3.4,0-6.2,2.5-6.6,5.8c-0.2,0-0.3,0-0.5,0c-3.7,0-6.7,3-6.7,6.7c0,3.7,3,6.7,6.7,6.7c0.8,0,1.6-0.1,2.4-0.4
			c1.3-0.7,2.7-2.1,4.6-4.3c0.2-0.3,0.4-0.5,0.7-0.8c1.6-1.9,3.7-4.4,4.6-5c0.6-0.3,1.3-0.5,2-0.5c2.4,0,4.4,2,4.4,4.4
			c0,2.4-2,4.4-4.4,4.4c-1.2,0-2.3-0.5-3.2-1.4C174.8,26.7,176.2,28.6,178.6,28.6 M167,15.8c0.2-2.3,2.1-4.1,4.4-4.1
			c2.3,0,4.2,1.8,4.4,4.1c-0.1,0.1-0.3,0.1-0.4,0.2l-0.1,0.1c-1.1,0.7-2.9,2.8-5.1,5.5c-0.2,0.3-0.5,0.5-0.7,0.8
			c-1.6,1.9-2.9,3.3-3.9,3.8c-0.3,0.2-0.8,0.2-1.3,0.2c-2.4,0-4.4-2-4.4-4.4c0-2.4,2-4.4,4.4-4.4c1.5,0,2.8,0.7,3.6,1.9
			C167.9,19.4,168.6,17.5,167,15.8"/>
		<path class="st0" d="M207.5,16.6c-1-1.3-2.3-2-4.3-2c-3.9,0-5.5,2.6-5.5,5.9c0,3.2,1.6,5.7,5.5,5.7c2,0,3.4-0.7,4.4-2l1.7,1.6
			c-1.5,1.6-3.4,2.5-6,2.5c-5.2,0-7.8-3.2-7.8-7.9c0-4.7,2.8-8,7.9-8c2.6,0,4.6,0.8,6,2.5L207.5,16.6z"/>
		<polygon class="st0" points="222.4,28.2 211.4,28.2 211.4,12.7 213.7,12.7 213.7,25.8 213.4,26.1 222.4,26.1 		"/>
		<path class="st0" d="M231,28.4c-4.9,0-7.5-3.2-7.5-7.9c0-4.7,2.6-8,7.5-8c4.9,0,7.5,3.4,7.5,8C238.5,25.2,235.8,28.4,231,28.4
			 M231,14.6c-3.7,0-5.2,2.6-5.2,5.9c0,3.2,1.5,5.7,5.2,5.7c3.7,0,5.2-2.5,5.2-5.7C236.1,17.3,234.7,14.6,231,14.6"/>
		<path class="st0" d="M254.6,21.1c0,4.7-2.2,7.3-6.8,7.3c-4.7,0-6.8-2.6-6.8-7.3v-8.4h2.3v8.4c0,3.3,1.2,5.2,4.5,5.2
			c3.3,0,4.5-1.9,4.5-5.2v-8.4h2.3V21.1z"/>
		<path class="st0" d="M264.1,28.2h-6.2V12.7h6.1c6.3,0,7.4,4.1,7.4,7.8C271.4,24.1,270.3,28.2,264.1,28.2 M263.8,14.8H260l0.2,0.2
			v10.8l-0.2,0.2h3.9c4.4,0,5.1-2.6,5.1-5.6C269,17.4,268.3,14.8,263.8,14.8"/>
		<path class="st0" d="M291.2,16.6c-1-1.3-2.3-2-4.3-2c-3.9,0-5.5,2.6-5.5,5.9c0,3.2,1.6,5.7,5.5,5.7c2,0,3.4-0.7,4.4-2l1.7,1.6
			c-1.5,1.6-3.4,2.5-6,2.5c-5.2,0-7.8-3.2-7.8-7.9c0-4.7,2.8-8,7.9-8c2.6,0,4.6,0.8,6,2.5L291.2,16.6z"/>
		<rect x="295.2" y="12.7" class="st0" width="2.3" height="15.5"/>
		<polygon class="st0" points="312.6,14.8 307,14.8 307.1,15 307.1,28.2 304.8,28.2 304.8,15 304.9,14.8 299.4,14.8 299.4,12.7 
			312.6,12.7 		"/>
		<polygon class="st0" points="328.7,12.7 322.1,21.7 322.1,28.2 319.7,28.2 319.7,21.7 313.1,12.7 316,12.7 319.9,18.1 320.9,19.8 
			320.9,19.8 321.9,18.1 325.8,12.7 		"/>
	</g>
	<g>
		<path d="M158,92.7V84h1.6v8.7H158z M159.5,90.6l-0.1-1.9L164,84h1.8l-3.8,4l-0.9,1L159.5,90.6z M164.1,92.7l-3.3-4l1.1-1.2
			l4.2,5.2H164.1z"/>
		<path d="M168.7,92.7h-1.6V84h1.6V92.7z M173.4,89h-4.8v-1.4h4.8V89z M173.2,84h1.6v8.7h-1.6V84z"/>
		<path d="M176,92.7l3.9-8.7h1.6l3.9,8.7h-1.7l-3.4-7.9h0.6l-3.4,7.9H176z M177.8,90.7l0.4-1.3h4.7l0.4,1.3H177.8z"/>
		<path d="M186.5,92.7V84h3.6c0.8,0,1.4,0.1,2,0.4c0.6,0.2,1,0.6,1.3,1.1c0.3,0.5,0.4,1,0.4,1.7c0,0.6-0.1,1.2-0.4,1.7
			c-0.3,0.5-0.7,0.8-1.3,1.1c-0.6,0.2-1.2,0.4-2,0.4h-2.7l0.7-0.7v3.3H186.5z M188.2,89.6l-0.7-0.8h2.6c0.7,0,1.3-0.2,1.6-0.5
			c0.4-0.3,0.5-0.7,0.5-1.3c0-0.6-0.2-1-0.5-1.3c-0.4-0.3-0.9-0.4-1.6-0.4h-2.6l0.7-0.8V89.6z M192.2,92.7l-2.2-3.2h1.7l2.2,3.2
			H192.2z"/>
		<path d="M199.7,92.8c-0.7,0-1.3-0.1-1.9-0.3c-0.6-0.2-1.1-0.5-1.5-0.9s-0.8-0.9-1-1.4c-0.2-0.5-0.3-1.1-0.3-1.8
			c0-0.6,0.1-1.2,0.3-1.8c0.2-0.5,0.6-1,1-1.4c0.4-0.4,0.9-0.7,1.5-0.9c0.6-0.2,1.2-0.3,1.9-0.3c0.7,0,1.4,0.1,2,0.4
			c0.6,0.2,1.1,0.6,1.5,1.1l-1,1c-0.3-0.3-0.7-0.6-1.1-0.8c-0.4-0.2-0.8-0.2-1.3-0.2c-0.5,0-0.9,0.1-1.3,0.2c-0.4,0.1-0.7,0.4-1,0.6
			c-0.3,0.3-0.5,0.6-0.7,1c-0.2,0.4-0.2,0.8-0.2,1.2c0,0.4,0.1,0.8,0.2,1.2c0.2,0.4,0.4,0.7,0.7,1c0.3,0.3,0.6,0.5,1,0.6
			c0.4,0.2,0.8,0.2,1.3,0.2c0.4,0,0.8-0.1,1.3-0.2c0.4-0.1,0.8-0.4,1.2-0.7l0.9,1.2c-0.5,0.4-1,0.6-1.6,0.8
			C201,92.7,200.3,92.8,199.7,92.8z M201.6,91.5v-3.3h1.5v3.5L201.6,91.5z"/>
		<path d="M206.9,92.7h-1.6V84h1.6V92.7z M211.5,89h-4.8v-1.4h4.8V89z M211.4,84h1.6v8.7h-1.6V84z"/>
		<path d="M214.1,92.7l3.9-8.7h1.6l3.9,8.7h-1.7l-3.4-7.9h0.6l-3.4,7.9H214.1z M215.9,90.7l0.4-1.3h4.7l0.4,1.3H215.9z"/>
		<path d="M224.7,92.7V84h3.6c0.8,0,1.4,0.1,2,0.4c0.6,0.2,1,0.6,1.3,1.1s0.4,1,0.4,1.7c0,0.6-0.1,1.2-0.4,1.7s-0.7,0.8-1.3,1.1
			c-0.6,0.2-1.2,0.4-2,0.4h-2.7l0.7-0.7v3.3H224.7z M226.3,89.6l-0.7-0.8h2.6c0.7,0,1.3-0.2,1.6-0.5c0.4-0.3,0.5-0.7,0.5-1.3
			c0-0.6-0.2-1-0.5-1.3c-0.4-0.3-0.9-0.4-1.6-0.4h-2.6l0.7-0.8V89.6z M230.4,92.7l-2.2-3.2h1.7l2.2,3.2H230.4z"/>
		<path d="M233.2,94.6l0.7-2.8l0.2,0.9c-0.3,0-0.5-0.1-0.7-0.3c-0.2-0.2-0.3-0.4-0.3-0.7c0-0.3,0.1-0.6,0.3-0.8
			c0.2-0.2,0.4-0.3,0.7-0.3c0.3,0,0.5,0.1,0.7,0.3c0.2,0.2,0.3,0.4,0.3,0.7c0,0.1,0,0.2,0,0.3c0,0.1,0,0.2-0.1,0.3
			c0,0.1-0.1,0.3-0.2,0.5l-0.6,1.8H233.2z"/>
		<path d="M240.3,92.7V84h1.3l5.5,6.7h-0.7V84h1.6v8.7h-1.3l-5.5-6.7h0.7v6.7H240.3z"/>
		<path d="M249.1,92.7l3.9-8.7h1.6l3.9,8.7h-1.7l-3.4-7.9h0.6l-3.4,7.9H249.1z M251,90.7l0.4-1.3h4.7l0.4,1.3H251z"/>
		<path d="M261.8,92.7L258,84h1.8l3.4,7.9h-1l3.4-7.9h1.6l-3.8,8.7H261.8z"/>
		<path d="M268.2,92.7V84h1.6v8.7H268.2z"/>
		<path d="M275.6,92.7V84h1.3l3.8,6.4H280l3.8-6.4h1.3l0,8.7h-1.5l0-6.3h0.3l-3.2,5.3H280l-3.2-5.3h0.4v6.3H275.6z"/>
		<path d="M291.2,92.8c-1.2,0-2.1-0.3-2.8-1c-0.7-0.7-1-1.6-1-2.9V84h1.6v4.9c0,0.9,0.2,1.5,0.6,2c0.4,0.4,0.9,0.6,1.6,0.6
			s1.3-0.2,1.6-0.6c0.4-0.4,0.6-1.1,0.6-2V84h1.6v4.9c0,1.3-0.3,2.2-1,2.9C293.3,92.5,292.4,92.8,291.2,92.8z"/>
		<path d="M297.3,92.7V84h1.3l3.8,6.4h-0.7l3.8-6.4h1.3l0,8.7h-1.5l0-6.3h0.3l-3.2,5.3h-0.7l-3.2-5.3h0.4v6.3H297.3z"/>
		<path d="M309.2,92.7V84h4.1c1,0,1.8,0.2,2.4,0.6c0.5,0.4,0.8,1,0.8,1.7c0,0.5-0.1,0.9-0.3,1.2c-0.2,0.3-0.5,0.6-0.9,0.8
			s-0.8,0.3-1.2,0.3l0.2-0.4c0.5,0,0.9,0.1,1.3,0.3c0.4,0.2,0.7,0.4,0.9,0.8c0.2,0.3,0.3,0.8,0.3,1.3c0,0.7-0.3,1.3-0.9,1.7
			c-0.6,0.4-1.4,0.6-2.6,0.6H309.2z M310.8,91.4h2.6c0.6,0,1.1-0.1,1.4-0.3s0.5-0.5,0.5-1c0-0.4-0.2-0.7-0.5-1s-0.8-0.3-1.4-0.3
			h-2.7v-1.3h2.4c0.6,0,1-0.1,1.3-0.3c0.3-0.2,0.5-0.5,0.5-0.9c0-0.4-0.2-0.7-0.5-0.9c-0.3-0.2-0.7-0.3-1.3-0.3h-2.3V91.4z"/>
		<path d="M317.5,92.7l3.9-8.7h1.6l3.9,8.7h-1.7l-3.4-7.9h0.6l-3.4,7.9H317.5z M319.3,90.7l0.4-1.3h4.7l0.4,1.3H319.3z"/>
		<path d="M328,92.7V84h1.6v8.7H328z"/>
	</g>
</g>
</svg>
