<?xml version="1.0" encoding="utf-8"?>
<!-- Generator: Adobe Illustrator 25.4.1, SVG Export Plug-In . SVG Version: 6.00 Build 0)  -->
<svg version="1.1" id="Layer_1" xmlns="http://www.w3.org/2000/svg" xmlns:xlink="http://www.w3.org/1999/xlink" x="0px" y="0px"
	 viewBox="0 0 348 104" style="enable-background:new 0 0 348 104;" xml:space="preserve">
<style type="text/css">
	.st0{fill:#2063AE;}
	.st1{fill:#04A64C;}
	.st2{fill:none;stroke:#777777;stroke-width:0.5616;stroke-miterlimit:10;}
	.st3{fill:none;stroke:#777777;stroke-width:0.5665;stroke-miterlimit:10;}
	.st4{fill:#404040;}
</style>
<g>
	<g>
		<g>
			<path class="st0" d="M42.3,21.9c0.2,5.9,0.5,17,0.9,21.5c0.4,5.3,0.7,9.3,1.4,11c0.2,0.5,0.4,1.6,1.6,2.1
				c0.8,0.3,1.8,0.2,2.4-0.3c2.1-1.7,2.9-4.1,2.9-6.7s-1-4.9-2.6-6.5c-1.5-1.5-3.4-2.4-5.7-2.5L43,35.8c1.9,0.1,3.7,0.5,5.3,1.2
				c1.6,0.8,3,1.8,4.2,3c1.2,1.3,2.1,2.7,2.7,4.4c0.7,1.7,1,3.4,1,5.3c0,1.6-0.2,3-0.7,4.4s-1.1,2.6-2,3.8h11.1L42.2,14.1L19.7,57.5
				h11.2c-0.9-1.2-1.5-2.4-2-3.8c-0.5-1.4-0.7-2.8-0.7-4.4c0-1.8,0.3-3.4,0.9-5c0.6-1.6,1.4-2.9,2.4-4.2c1.2-1.4,2.6-2.5,4.3-3.3
				s3.6-1.3,5.6-1.4l-0.2,4.7c-2.6,0.2-4.8,1.4-6.3,3.2c-1.3,1.6-2.1,3.6-2.1,6c0,2.7,0.8,5.1,2.9,6.7c0.7,0.5,1.8,0.6,2.5,0.3
				c1.1-0.5,1.3-1.6,1.5-2c0.7-1.9,1-5.9,1.4-11c0.3-4.7,0.7-15.6,0.8-21.5h0.4C42.3,21.8,42.3,21.9,42.3,21.9z"/>
		</g>
		<g>
			<path class="st1" d="M20.2,66.1c0.2,0,0.2-0.3,0.2-0.5v-3.7c0-0.2,0-0.4-0.2-0.4c-0.2-0.1-0.4,0-0.6,0v-0.4h2.9v0.4
				c-0.2,0-0.4,0-0.6,0s-0.2,0.3-0.2,0.4V64l1.6-1.7c0.1-0.1,0.4-0.4,0.4-0.6c-0.1-0.2-0.6-0.2-0.8-0.2v-0.4h2.5v0.4
				c-0.7,0-1.2,0.5-1.6,0.9l-0.6,0.7l1.7,2.6c0.1,0.2,0.2,0.4,0.3,0.4c0.1,0.1,0.3,0.1,0.4,0.1v0.4h-2.7v-0.4c0.2,0,0.4,0,0.6-0.1
				s0.1-0.2,0-0.3l-1.1-1.9l-0.7,0.7v0.9c0,0.3,0,0.5,0.2,0.6c0.1,0,0.4,0,0.5,0v0.4h-2.9v-0.4C19.8,66.2,20,66.1,20.2,66.1"/>
		</g>
		<g>
			<path class="st1" d="M32.6,66.2c-0.3-0.3-0.3-0.7-0.3-1.2c0-0.7-0.1-1.1-0.8-1.2c-0.2,0-0.4,0-0.6,0v1.8c0,0.2,0,0.4,0.3,0.5
				c0.2,0,0.4,0,0.6,0v0.4h-3v-0.4c0.1,0,0.3,0,0.4,0c0.4,0,0.4-0.1,0.4-0.5v-3.5c0-0.3,0.1-0.7-0.3-0.7c-0.2,0-0.4,0-0.5,0V61h3
				c0.6,0,1.3,0,1.9,0.3c0.3,0.2,0.6,0.7,0.6,1.1c0,1-0.8,1.3-1.7,1.4c0.6,0.2,1,0.5,1.2,1.2c0.1,0.3,0.2,1.1,0.6,1.2
				c0.1,0,0.5,0,0.5,0v0.4c-0.4,0-0.8,0-1.3,0C33.2,66.6,32.9,66.5,32.6,66.2 M31.5,63.5c0.8,0,1.2-0.3,1.2-1.1c0-0.8-0.4-1-1.1-1
				c-0.2,0-0.4,0-0.6,0.1c-0.2,0.1-0.2,0.3-0.2,0.4v1.6C31.1,63.6,31.3,63.6,31.5,63.5"/>
		</g>
		<g>
			<path class="st1" d="M38.6,60.9l2,4.6c0.2,0.4,0.3,0.6,0.8,0.6v0.4h-2.6v-0.4c0.1,0,0.4,0,0.5-0.1v-0.3l-0.4-0.8h-2
				c-0.1,0.2-0.2,0.5-0.2,0.8c0,0.5,0.4,0.5,0.8,0.5v0.4h-2.2v-0.4c0.6-0.1,0.9-0.7,1.1-1.2l1.8-4C38.1,60.9,38.6,60.9,38.6,60.9z
				 M37.9,62.6l-0.8,1.9h1.6L37.9,62.6z"/>
		</g>
		<g>
			<path class="st1" d="M44.6,61.1v0.4c-0.1,0-0.6,0-0.7,0.1L43.8,62v1.6h2.1v-1.5c0-0.3,0-0.5-0.4-0.5c-0.1,0-0.3,0-0.4,0v-0.4H48
				v0.4h-0.6c-0.2,0.1-0.2,0.3-0.2,0.5v3.5c0,0.2-0.1,0.6,0.2,0.6c0.2,0,0.4,0,0.6,0v0.4h-2.9v-0.4c0.1,0,0.4,0,0.6,0
				c0.3,0,0.2-0.4,0.2-0.6V64h-2.1v1.7c0,0.2,0,0.5,0.2,0.5s0.4,0,0.6,0v0.4h-2.9v-0.4h0.5c0.3,0,0.3-0.4,0.3-0.6V62
				c0-0.2,0-0.4-0.2-0.4s-0.4,0-0.6,0v-0.4L44.6,61.1L44.6,61.1z"/>
		</g>
		<g>
			<path class="st1" d="M49.3,66.2c0.3,0,0.3-0.2,0.3-0.5v-3.9c0-0.1,0-0.3-0.2-0.3s-0.5,0-0.7,0v-0.4h5.1l0.1,2h-0.4
				c-0.2-0.6-0.4-1.1-0.8-1.3c-0.4-0.3-1.3-0.5-1.8-0.2c-0.2,0.1-0.2,0.4-0.2,0.6v1.5c0.8,0.1,1.1-0.4,1.2-1.1h0.4v2.6h-0.4
				c0-0.8-0.5-1.2-1.2-1.2v1.7c0,0.3,0,0.5,0.4,0.5c0.5,0,1,0.1,1.5-0.2c0.5-0.3,0.7-0.9,0.9-1.5h0.4l-0.1,2.1h-5.2v-0.4
				C48.9,66.2,49.1,66.2,49.3,66.2"/>
		</g>
		<g>
			<path class="st1" d="M58,66.2c-0.5,0.4-1.1,0.5-1.7,0.5c-0.5,0-1-0.1-1.3-0.4c-0.4-0.3-0.5-0.7-0.5-1.2s0.3-1.1,0.9-1.1
				c0.4,0,0.8,0.3,0.8,0.7c0,0.4-0.2,0.8-0.6,0.8c-0.1,0-0.5-0.2-0.5,0.1c0,0.2,0.2,0.3,0.3,0.4c0.2,0.1,0.4,0.2,0.6,0.2
				c0.5,0,0.9-0.2,1.1-0.6c0.2-0.4,0.1-0.9,0.1-1.3v-2.5c0-0.3-0.2-0.3-0.4-0.3h-0.5v-0.4h2.9v0.4h-0.5c-0.4,0-0.3,0.4-0.3,0.6v2.4
				C58.6,65.1,58.5,65.7,58,66.2"/>
		</g>
		<g>
			<path class="st1" d="M62.1,60.9l2,4.6c0.2,0.4,0.3,0.6,0.8,0.6v0.4h-2.6v-0.4c0.1,0,0.4,0,0.5-0.1v-0.3l-0.4-0.8h-2
				c-0.1,0.2-0.2,0.5-0.2,0.8c0,0.5,0.4,0.5,0.8,0.5v0.4h-2.1v-0.4c0.6-0.1,0.9-0.7,1.1-1.2l1.7-4h0.4V60.9z M61.4,62.6l-0.8,1.9
				h1.6L61.4,62.6z"/>
		</g>
		<g>
			<path class="st1" d="M36.5,68.1l0.1,2h-0.3c-0.1-0.4-0.3-0.9-0.6-1.2c-0.3-0.3-0.7-0.5-1.1-0.5c-0.6,0-1,0.3-1.3,0.8
				c-0.2,0.5-0.3,1-0.3,1.6s0.1,1.3,0.5,1.7c0.3,0.3,0.6,0.4,1.1,0.4s0.8-0.1,1.1-0.4s0.5-0.7,0.6-1.2l0.3,0.1
				c-0.1,0.6-0.3,1.1-0.8,1.4c-0.3,0.3-0.8,0.4-1.4,0.4c-0.6,0-1-0.2-1.4-0.4c-0.7-0.4-1-1.2-1-2c0-0.7,0.2-1.3,0.7-1.8
				s1.1-0.9,1.8-0.9c0.5,0,1,0.1,1.3,0.5l0.3-0.4L36.5,68.1L36.5,68.1z"/>
		</g>
		<g>
			<path class="st1" d="M41.8,68.8c0.4,0.5,0.7,1.2,0.7,1.8c0,0.6-0.3,1.3-0.7,1.8c-0.5,0.5-1.1,0.8-1.9,0.8c-0.8,0-1.5-0.4-2-1
				c-0.4-0.5-0.6-1-0.6-1.6s0.2-1.3,0.7-1.7c0.5-0.5,1.1-0.9,1.9-0.9C40.6,68.1,41.3,68.3,41.8,68.8 M38.4,70.7
				c0,0.5,0.1,1.1,0.4,1.6c0.3,0.3,0.6,0.5,1.2,0.5s0.9-0.2,1.2-0.5c0.4-0.5,0.4-1.1,0.4-1.7c0-0.7-0.1-1.3-0.5-1.9
				c-0.3-0.3-0.6-0.4-1-0.4s-0.8,0.1-1.1,0.5C38.5,69.3,38.4,70,38.4,70.7"/>
		</g>
		<g>
			<path class="st1" d="M45.7,71.8c-0.1-0.8-0.3-1.2-1.2-1.2H44v1.7c0,0.1,0,0.3,0.2,0.4s0.4,0,0.6,0V73h-2.3v-0.3
				c0.2,0,0.4,0,0.5,0c0.3,0,0.3-0.1,0.3-0.4v-3.4c0-0.3-0.1-0.4-0.4-0.4h-0.5v-0.3H45c0.4,0,0.9,0.1,1.3,0.3
				c0.3,0.2,0.5,0.5,0.5,0.9s-0.2,0.6-0.4,0.8c-0.3,0.3-0.8,0.4-1.3,0.4c0.4,0,0.7,0.2,0.9,0.4c0.2,0.3,0.3,0.6,0.4,1
				c0.1,0.2,0.1,0.7,0.4,0.8c0.2,0,0.3,0.1,0.5,0v0.3h-0.9C45.8,73,45.7,72.3,45.7,71.8 M44.7,70.3c0.2,0,0.5,0,0.7-0.1
				c0.2,0,0.4-0.1,0.5-0.3c0.1-0.1,0.2-0.4,0.2-0.6c0-0.3-0.1-0.6-0.2-0.7c-0.1-0.1-0.3-0.2-0.5-0.2c-0.3,0-0.5,0-0.8,0
				s-0.4,0.1-0.4,0.4v1.5C44.3,70.3,44.5,70.3,44.7,70.3"/>
		</g>
		<g>
			<path class="st1" d="M47.8,72.7c0.2,0,0.4,0,0.6,0s0.2-0.2,0.2-0.4v-3.4c0-0.2,0-0.3-0.3-0.4c-0.2,0-0.3,0-0.5,0v-0.3h2.6
				c0.4,0,0.9,0.1,1.3,0.3c0.4,0.2,0.6,0.6,0.6,1.1c0,0.4-0.1,0.7-0.4,0.9c-0.3,0.2-0.6,0.3-0.9,0.4c-0.5,0.1-1.1,0-1.6,0v1.4
				c0,0.4,0.1,0.5,0.3,0.5s0.4,0,0.6,0v0.3h-2.4L47.8,72.7L47.8,72.7z M50.1,70.5c0.5,0,0.8-0.1,1.1-0.3c0.2-0.2,0.3-0.4,0.3-0.8
				s-0.1-0.7-0.3-0.8c-0.2-0.1-0.4-0.2-0.7-0.2c-0.2,0-0.5,0-0.7,0s-0.3,0.1-0.3,0.3v1.8C49.6,70.5,49.8,70.5,50.1,70.5"/>
		</g>
		<g>
			<polygon class="st0" points="13.7,87.9 13.7,76 14.8,76 14.8,81.2 21.3,81.2 21.3,76 22.3,76 22.3,87.9 21.3,87.9 21.3,82.1 
				14.8,82.1 14.8,87.9 			"/>
		</g>
		<g>
			<path class="st0" d="M30.1,88.1c-3.4,0-5.3-2.4-5.3-6.2s1.9-6.2,5.3-6.2c3.4,0,5.3,2.4,5.3,6.2C35.4,85.7,33.5,88.1,30.1,88.1
				 M30.1,87.1c2.9,0,4.1-2.6,4.1-5.2s-1.2-5.2-4.1-5.2c-2.9,0-4.1,2.6-4.1,5.2S27.1,87.1,30.1,87.1"/>
		</g>
		<g>
			<polygon class="st0" points="38.1,87.9 38.1,76 39.8,76 44.3,86.3 48.8,76 50.5,76 50.5,87.9 49.4,87.9 49.4,76.9 49.4,76.9 
				44.8,87.9 43.7,87.9 39.2,77 39.1,77 39.1,87.9 			"/>
		</g>
		<g>
			<polygon class="st0" points="53.7,87.9 53.7,76 60.8,76 60.8,77 54.8,77 54.8,81.3 60.5,81.3 60.5,82.2 54.8,82.2 54.8,86.9 
				61,86.9 61,87.9 			"/>
		</g>
		<g>
			<path class="st0" d="M66.6,88.1c-1.9,0-3.5-1.4-3.5-3.3h1.2c0,1.9,1.4,2.3,3,2.3c1.4,0,2.8-0.8,2.8-2.2c0-1.2-0.9-1.8-1.9-2.1
				c-2-0.7-4.9-1.3-4.9-3.8c0-2.1,2-3.2,3.8-3.2c1.6,0,3.6,0.6,3.9,2.8h-1.2c0-1.5-1.4-1.9-2.5-1.9c-1.3,0-2.7,0.6-2.7,2.1
				c0,3.4,6.7,1.9,6.7,6C71.2,87.3,69,88.1,66.6,88.1"/>
		</g>
		<g>
			<rect x="54" y="70.4" class="st0" width="16.6" height="0.4"/>
		</g>
		<g>
			<rect x="13.8" y="70.4" class="st0" width="16.6" height="0.4"/>
		</g>
		<g>
			<rect x="13.8" y="90.4" class="st0" width="56.9" height="0.4"/>
		</g>
		<g>
			<polygon class="st0" points="72.8,73.4 72.8,73.6 72.3,73.6 72.3,75.2 72.1,75.2 72.1,73.6 71.4,73.6 71.4,73.4 			"/>
		</g>
		<g>
			<polygon class="st0" points="73.1,73.4 73.4,73.4 74,74.9 74.5,73.4 74.9,73.4 74.9,75.2 74.6,75.2 74.6,74.1 74.6,73.9 
				74.6,73.6 74.1,75.2 73.9,75.2 73.3,73.6 73.3,73.7 73.3,73.9 73.3,74.1 73.3,75.2 73.1,75.2 			"/>
		</g>
	</g>
	<line class="st2" x1="88.1" y1="9.1" x2="88.1" y2="95.8"/>
	<g>
		<line class="st3" x1="332.2" y1="75.3" x2="102.7" y2="75.3"/>
		<g>
			<path class="st4" d="M106.2,91.3c-0.7,0-1.4-0.1-2-0.4c-0.6-0.3-1.1-0.7-1.5-1.2l1.4-1.7c0.3,0.4,0.6,0.7,1,0.9
				c0.3,0.2,0.7,0.3,1.1,0.3c1,0,1.6-0.6,1.6-1.8V82h-4v-2h6.5v7.3c0,1.4-0.3,2.5-1,3.1C108.6,91,107.6,91.3,106.2,91.3z"/>
			<path class="st4" d="M118.6,91.3c-1.6,0-2.9-0.4-3.8-1.3c-0.9-0.9-1.3-2.1-1.3-3.8v-6.3h2.6v6.2c0,1,0.2,1.8,0.6,2.4
				c0.4,0.5,1,0.7,1.8,0.7s1.4-0.2,1.8-0.7c0.4-0.5,0.6-1.2,0.6-2.4v-6.2h2.6v6.3c0,1.6-0.4,3-1.3,3.8
				C121.5,90.9,120.2,91.3,118.6,91.3z"/>
			<path class="st4" d="M126.9,91.1V79.9h2.6v11.4h-2.6V91.1z"/>
			<path class="st4" d="M132.9,91.1V79.9h2.1l6.6,8.2h-1v-8.2h2.6v11.4h-2.1l-6.6-8.2h1v8.2h-2.6V91.1z"/>
			<path class="st4" d="M145.1,91.1l5-11.4h2.6l5,11.4h-2.8l-4.1-10h1l-4.1,10H145.1z M147.6,88.8l0.7-1.9h5.8l0.7,1.9H147.6z"/>
			<path class="st4" d="M164.9,91.3c-0.9,0-1.7-0.1-2.5-0.4c-0.7-0.3-1.4-0.7-1.9-1.2c-0.5-0.5-1-1.1-1.3-1.8s-0.4-1.4-0.4-2.4
				c0-0.8,0.1-1.6,0.4-2.4c0.3-0.7,0.7-1.3,1.3-1.8c0.5-0.5,1.2-0.9,1.9-1.2c0.7-0.3,1.5-0.4,2.5-0.4c1,0,1.9,0.2,2.7,0.5
				c0.8,0.3,1.4,0.8,2,1.4l-1.6,1.5c-0.4-0.4-0.8-0.7-1.3-0.9c-0.5-0.2-1-0.3-1.5-0.3c-0.5,0-1,0.1-1.5,0.3
				c-0.4,0.2-0.8,0.4-1.1,0.7c-0.3,0.3-0.6,0.7-0.7,1.1c-0.2,0.4-0.3,0.9-0.3,1.4c0,0.5,0.1,1,0.3,1.4c0.2,0.4,0.4,0.8,0.7,1.1
				c0.3,0.3,0.7,0.6,1.1,0.7c0.4,0.2,0.9,0.3,1.4,0.3c0.5,0,1-0.1,1.5-0.2c0.5-0.2,0.9-0.4,1.4-0.8l1.4,1.8c-0.6,0.4-1.3,0.8-2.1,1
				C166.6,91.2,165.8,91.3,164.9,91.3z M167.1,89.6v-4.2h2.4V90L167.1,89.6z"/>
			<path class="st4" d="M171.1,91.1l5-11.4h2.6l5,11.4h-2.8l-4.1-10h1l-4.1,10H171.1z M173.6,88.8l0.7-1.9h5.8l0.7,1.9H173.6z"/>
			<path class="st4" d="M185.6,91.1V79.9h4.9c1,0,1.8,0.2,2.6,0.5c0.7,0.3,1.3,0.8,1.6,1.4c0.4,0.6,0.6,1.3,0.6,2.1
				c0,0.8-0.2,1.5-0.6,2.1c-0.4,0.6-0.9,1-1.6,1.4c-0.7,0.3-1.6,0.5-2.6,0.5h-3.4l1.1-1.1v4.3h-2.7V91.1z M188.3,87.2l-1.1-1.2h3.3
				c0.8,0,1.4-0.2,1.8-0.5c0.4-0.3,0.6-0.8,0.6-1.4s-0.2-1.1-0.6-1.4c-0.4-0.3-1-0.5-1.8-0.5h-3.3l1.1-1.2V87.2z M192.8,91.1L190,87
				h2.8l2.9,4.1H192.8z"/>
			<path class="st4" d="M197.6,93.7l1-3.9l0.3,1.4c-0.4,0-0.8-0.1-1.1-0.4c-0.3-0.3-0.4-0.6-0.4-1.1c0-0.5,0.1-0.8,0.4-1.1
				c0.3-0.3,0.7-0.4,1.1-0.4c0.4,0,0.8,0.1,1.1,0.4s0.4,0.6,0.4,1.1c0,0.1,0,0.3,0,0.4s-0.1,0.3-0.1,0.5c-0.1,0.2-0.1,0.4-0.3,0.7
				l-0.9,2.4H197.6z"/>
			<path class="st4" d="M208.2,91.1V79.9h2.1l6.6,8.2h-1v-8.2h2.6v11.4h-2l-6.6-8.2h1v8.2h-2.7V91.1z"/>
			<path class="st4" d="M220.5,91.1l5-11.4h2.6l5,11.4h-2.8l-4.1-10h1l-4.1,10H220.5z M222.9,88.8l0.7-1.9h5.8l0.7,1.9H222.9z"/>
			<path class="st4" d="M237.8,91.1l-4.8-11.4h2.8l4.2,10h-1.6l4.3-10h2.6l-4.9,11.4H237.8z"/>
			<path class="st4" d="M246.9,91.1V79.9h2.6v11.4h-2.6V91.1z"/>
			<path class="st4" d="M257.9,91.1V79.9h2.1l4.8,8.1h-1.1l4.7-8.1h2.1v11.4h-2.5v-7.5h0.4l-3.8,6.3h-1.1l-3.9-6.3h0.5v7.5h-2.4
				V91.1z"/>
			<path class="st4" d="M279.2,91.3c-1.6,0-2.9-0.4-3.8-1.3c-0.9-0.9-1.3-2.1-1.3-3.8v-6.3h2.6v6.2c0,1,0.2,1.8,0.6,2.4
				c0.4,0.5,1,0.7,1.8,0.7c0.8,0,1.4-0.2,1.8-0.7c0.4-0.5,0.6-1.2,0.6-2.4v-6.2h2.6v6.3c0,1.6-0.4,3-1.3,3.8
				C281.9,90.9,280.7,91.3,279.2,91.3z"/>
			<path class="st4" d="M287.5,91.1V79.9h2.1l4.8,8.1h-1.1l4.7-8.1h2.1v11.4h-2.5v-7.5h0.4l-3.8,6.3h-1.1l-3.9-6.3h0.5v7.5h-2.4
				V91.1z"/>
			<path class="st4" d="M303.5,91.1V79.9h5.5c1.4,0,2.5,0.3,3.2,0.8c0.7,0.5,1,1.2,1,2.1c0,0.6-0.1,1.1-0.4,1.5
				c-0.3,0.4-0.7,0.8-1.2,1c-0.5,0.2-1.1,0.3-1.7,0.3l0.3-0.6c0.7,0,1.3,0.1,1.8,0.3c0.5,0.2,0.9,0.6,1.2,1c0.3,0.4,0.4,1,0.4,1.6
				c0,0.9-0.4,1.7-1.1,2.2c-0.7,0.5-1.8,0.8-3.4,0.8C309.2,91.1,303.5,91.1,303.5,91.1z M306.1,89.2h3.1c0.7,0,1.2-0.1,1.5-0.3
				c0.3-0.2,0.5-0.6,0.5-1c0-0.5-0.2-0.8-0.5-1c-0.3-0.2-0.8-0.3-1.5-0.3h-3.3v-1.9h2.8c0.6,0,1.1-0.1,1.4-0.3
				c0.3-0.2,0.5-0.5,0.5-1c0-0.4-0.2-0.8-0.5-1c-0.3-0.2-0.8-0.3-1.4-0.3h-2.6V89.2z"/>
			<path class="st4" d="M315.1,91.1l5-11.4h2.6l5,11.4h-2.8l-4.1-10h1l-4.1,10H315.1z M317.6,88.8l0.7-1.9h5.8l0.7,1.9H317.6z"/>
			<path class="st4" d="M329.6,91.1V79.9h2.6v11.4h-2.6V91.1z"/>
		</g>
		<g>
			<g>
				<path class="st1" d="M103.5,65.7h0.4c0.4,0.2,0.8,0.5,1.2,0.7c0.4,0.2,0.9,0.4,1.3,0.6c0.4,0.2,0.9,0.3,1.4,0.4
					c0.5,0.1,0.9,0.2,1.4,0.2c0.7,0,1.3-0.1,1.7-0.4c0.4-0.2,0.7-0.6,0.8-1c0.1-0.4,0.3-0.9,0.3-1.5c0.1-0.6,0.2-1.3,0.2-2
					c0-0.8,0.1-1.6,0.1-2.6s0-1.9,0-3.1V31.9c0-0.4-0.1-0.7-0.3-0.9c-0.2-0.3-0.5-0.4-0.8-0.5l-3.3-0.6v-1.1H121v1.1l-3.1,0.6
					c-0.3,0.1-0.6,0.2-0.8,0.5c-0.2,0.3-0.3,0.6-0.3,0.9v26.3c0,1.9-0.3,3.6-0.8,5.1c-0.5,1.5-1.3,2.9-2.2,3.9
					c-0.9,1-1.9,1.9-3.2,2.5c-1.2,0.6-2.5,0.9-3.9,0.9c-0.3,0-0.6,0-0.9-0.1c-0.3,0-0.7-0.1-1-0.2c-0.4-0.1-0.7-0.2-1.1-0.3
					c-0.4-0.1-0.7-0.3-1-0.4L103.5,65.7z"/>
				<path class="st1" d="M120.1,60.5l2-0.6c0.3-0.1,0.6-0.3,0.8-0.5c0.2-0.3,0.4-0.5,0.5-0.8l9.4-24.8l2.9-5.5h0.9l11.7,30.2
					c0.1,0.3,0.3,0.6,0.5,0.8c0.2,0.3,0.5,0.4,0.8,0.5l2,0.6v1.2h-11.6v-1.1l4.2-0.8l-4-10.3h-11.6l-3.7,10.2l4.1,0.9v1.1h-9.3v-1.1
					H120.1z M139.9,47.6l-3.9-10l-1.2-3.2l0,0l-4.9,13.3h10V47.6z"/>
				<path class="st1" d="M152.9,60.5l3.1-0.6c0.3-0.1,0.6-0.2,0.8-0.5c0.2-0.2,0.3-0.5,0.3-0.9V31.9c0-0.4-0.1-0.7-0.3-0.9
					s-0.5-0.4-0.8-0.5l-3.1-0.6v-1.1h13.6c1,0,2.2,0.1,3.5,0.3c1.2,0.2,2.5,0.5,3.7,1c1.2,0.5,2.4,1.1,3.5,1.9c1.1,0.8,2,1.8,3,3.1
					c0.8,1.2,1.5,2.7,2,4.4c0.5,1.6,0.7,3.6,0.7,5.8c0,2.8-0.4,5.2-1.3,7.3c-0.8,2-2,3.8-3.6,5.1c-1.5,1.3-3.3,2.4-5.2,3
					c-1.9,0.6-4.1,1-6.3,1h-13.5L152.9,60.5L152.9,60.5z M166.8,59.8c1.9,0,3.6-0.3,5-0.9c1.4-0.6,2.6-1.5,3.5-2.7
					c0.9-1.1,1.6-2.7,2-4.3c0.4-1.6,0.7-3.7,0.7-5.8c0-2.4-0.3-4.6-0.9-6.4s-1.4-3.6-2.6-4.9c-1.1-1.3-2.5-2.4-4-3.1
					c-1.5-0.7-3.3-1.1-5.2-1.1h-4.1v29.4h5.5V59.8z"/>
				<path class="st1" d="M186.5,60.5l3.1-0.6c0.3-0.1,0.6-0.2,0.8-0.5c0.2-0.2,0.3-0.5,0.3-0.9V31.9c0-0.4-0.1-0.7-0.3-0.9
					s-0.5-0.4-0.8-0.5l-3.1-0.6v-1.1h23.9v7.7h-1.3l-1.7-5.1c-0.1-0.2-0.2-0.4-0.3-0.6s-0.3-0.2-0.6-0.2H195v13h7.6
					c0.3,0,0.5-0.1,0.7-0.2c0.2-0.1,0.2-0.3,0.3-0.5l1.3-3.9h1.1V50h-1.1l-1.3-3.9c-0.1-0.2-0.2-0.4-0.3-0.6
					c-0.1-0.1-0.4-0.2-0.7-0.2H195v14.4h13.5c0.3,0,0.5-0.1,0.6-0.2s0.2-0.3,0.3-0.6l1.6-5.7h1.3v8.4h-25.9V60.5z"/>
				<path class="st1" d="M256.9,55.1v2c-0.6,0.5-1.4,1.1-2.2,1.7c-0.8,0.6-1.8,1.1-2.8,1.6c-1,0.5-2,0.9-3.2,1.2
					c-1.1,0.3-2.2,0.5-3.5,0.5c-2.4,0-4.6-0.4-6.4-1.2c-1.9-0.8-3.6-1.9-4.9-3.4c-1.3-1.4-2.5-3.3-3.2-5.3c-0.7-2.1-1.1-4.5-1.1-7.2
					c0-2.6,0.4-4.9,1.2-7c0.8-2,1.9-3.9,3.3-5.4c1.4-1.5,3.1-2.7,5-3.5c1.9-0.8,4-1.2,6.2-1.2c0.8,0,1.6,0.1,2.6,0.2
					c0.9,0.1,1.8,0.2,2.8,0.4c0.9,0.2,1.8,0.4,2.7,0.6c0.8,0.2,1.6,0.4,2.2,0.7v7.6h-1.2l-1.5-4.2c-0.1-0.3-0.2-0.5-0.4-0.7
					c-0.2-0.1-0.4-0.3-0.6-0.4c-0.5-0.3-1.1-0.5-1.7-0.8c-0.6-0.2-1.3-0.5-2-0.7c-0.7-0.2-1.4-0.3-2.1-0.5c-0.7-0.1-1.4-0.2-2-0.2
					c-1.4,0-2.8,0.3-3.9,0.9c-1.2,0.6-2.2,1.5-3.1,2.7c-0.8,1.2-1.5,2.7-2,4.5c-0.5,1.8-0.7,3.9-0.7,6.2c0,5,1,8.7,3.2,11.1
					c2.1,2.5,5.1,3.8,9.1,3.8c1.3,0,2.5-0.1,3.5-0.4c1-0.3,1.9-0.6,2.8-1c0.8-0.4,1.5-0.9,2.1-1.3c0.6-0.4,1.1-0.9,1.6-1.4
					C256.4,55.1,256.9,55.1,256.9,55.1z"/>
				<path class="st1" d="M259.8,60.5l3.1-0.6c0.3-0.1,0.6-0.2,0.8-0.5c0.2-0.2,0.3-0.5,0.3-0.9V31.9c0-0.4-0.1-0.7-0.3-0.9
					c-0.2-0.2-0.5-0.4-0.8-0.5l-3.1-0.6v-1.1h12.6v1.1l-3,0.6c-0.3,0.1-0.6,0.2-0.8,0.5c-0.2,0.3-0.3,0.6-0.3,0.9v26.5
					c0,0.4,0.1,0.7,0.3,0.9c0.2,0.2,0.5,0.4,0.8,0.5l3,0.6v1.1h-12.6V60.5z"/>
				<path class="st1" d="M282.4,60.5l3.5-0.6c0.3-0.1,0.6-0.2,0.8-0.5c0.2-0.3,0.3-0.6,0.3-0.9V30.6h-7.6c-0.3,0-0.5,0.1-0.7,0.2
					c-0.2,0.1-0.2,0.3-0.3,0.6l-1.7,5.2h-1.2v-7.9H303v7.9h-1.2l-1.7-5.2c-0.1-0.2-0.2-0.4-0.3-0.6c-0.1-0.2-0.3-0.2-0.6-0.2h-7.7
					v27.9c0,0.4,0.1,0.7,0.3,0.9c0.2,0.2,0.5,0.4,0.8,0.5l3.5,0.6v1h-13.6L282.4,60.5L282.4,60.5z"/>
				<path class="st1" d="M312.6,60.5l3.5-0.6c0.3-0.1,0.6-0.2,0.8-0.5c0.2-0.3,0.3-0.6,0.3-0.9V48.3L308,31.9
					c-0.2-0.3-0.4-0.6-0.6-0.9c-0.2-0.3-0.5-0.5-0.8-0.5l-2.1-0.6v-1.1h11.7v1.1l-4.1,0.8l7.1,12.6l1.6,2.9l8.4-15.3l-3.9-0.9v-1.1
					h9.1v1.1l-2,0.6c-0.3,0.1-0.6,0.3-0.8,0.5c-0.2,0.3-0.4,0.6-0.6,0.9l-9.3,16.3v10.3c0,0.4,0.1,0.7,0.3,0.9
					c0.2,0.2,0.5,0.4,0.8,0.5l3.5,0.6v1h-13.5V60.5z"/>
			</g>
			<path class="st1" d="M205.1,16.3c2.8,0.7,6.5,1.9,10.6,4.4c3.8,2.2,6.5,4.8,8.4,6.9c0.9-1.7,3.3-5.5,7.9-8.3
				c4.3-2.6,8.4-3,10.2-3c-1.3-0.3-7-1.6-12.5,1.5c-2.8,1.6-4.4,3.7-5.2,5c-1.2-1.4-4.1-4.3-8.7-5.8C211.1,15.4,207,16,205.1,16.3z"
				/>
			<path class="st1" d="M208.1,8.7c2.4,0.6,5.5,1.6,8.9,3.7c3.2,1.9,5.5,4.1,7.1,5.7c0.8-1.4,2.8-4.6,6.6-7c3.6-2.1,7-2.5,8.6-2.6
				c-1.1-0.3-5.8-1.3-10.4,1.3c-2.2,1.3-3.7,3.1-4.4,4.2c-1-1.1-3.4-3.6-7.4-4.9S209.6,8.4,208.1,8.7z"/>
		</g>
		<g>
			<g>
				<path class="st1" d="M111.8,21.2c-0.7-0.7-0.7-1.7-0.7-2.9c0-1.7-0.2-2.7-1.9-2.9c-0.5,0-1,0-1.5,0v4.4c0,0.5,0,1,0.7,1.2
					c0.5,0,1,0,1.5,0v1h-7.3v-1c0.2,0,0.7,0,1,0c1,0,1-0.2,1-1.2v-8.5c0-0.7,0.2-1.7-0.7-1.7c-0.5,0-1,0-1.2,0v-1h7.3
					c1.5,0,3.2,0,4.6,0.7c0.7,0.5,1.5,1.7,1.5,2.7c0,2.4-1.9,3.2-4.1,3.4c1.5,0.5,2.4,1.2,2.9,2.9c0.2,0.7,0.5,2.7,1.5,2.9
					c0.2,0,1.2,0,1.2,0v1c-1,0-1.9,0-3.2,0C113.3,22.1,112.5,21.9,111.8,21.2 M109.1,14.6c1.9,0,2.9-0.7,2.9-2.7
					c0-1.9-1-2.4-2.7-2.4c-0.5,0-1,0-1.5,0.2c-0.5,0.2-0.5,0.7-0.5,1v3.9C108.2,14.8,108.6,14.8,109.1,14.6"/>
			</g>
			<g>
				<path class="st1" d="M126.4,8.3l4.9,11.2c0.5,1,0.7,1.5,1.9,1.5v1h-6.3v-1c0.2,0,1,0,1.2-0.2V20l-1-1.9h-4.9
					c-0.2,0.5-0.5,1.2-0.5,1.9c0,1.2,1,1.2,1.9,1.2v1h-5.4v-1c1.5-0.2,2.2-1.7,2.7-2.9l4.4-9.7C125.2,8.3,126.4,8.3,126.4,8.3z
					 M124.7,12.4l-1.9,4.6h3.9L124.7,12.4z"/>
			</g>
			<g>
				<path class="st1" d="M141,8.8v1c-0.2,0-1.5,0-1.7,0.2l-0.2,1v3.9h5.1v-3.7c0-0.7,0-1.2-1-1.2c-0.2,0-0.7,0-1,0V9h7.1v1h-1.5
					c-0.5,0.2-0.5,0.7-0.5,1.2v8.5c0,0.5-0.2,1.5,0.5,1.5c0.5,0,1,0,1.5,0v1h-7.1v-1c0.2,0,1,0,1.5,0c0.7,0,0.5-1,0.5-1.5v-3.9h-5.1
					V20c0,0.5,0,1.2,0.5,1.2s1,0,1.5,0v1H134v-1h1.2c0.7,0,0.7-1,0.7-1.5v-8.8c0-0.5,0-1-0.5-1s-1,0-1.5,0V9L141,8.8L141,8.8z"/>
			</g>
			<g>
				<path class="st1" d="M152.5,21.2c0.7,0,0.7-0.5,0.7-1.2v-9.5c0-0.2,0-0.7-0.5-0.7s-1.2,0-1.7,0v-1h12.4l0.2,4.9h-1
					c-0.5-1.5-1-2.7-1.9-3.2c-1-0.7-3.2-1.2-4.4-0.5c-0.5,0.2-0.5,1-0.5,1.5v3.7c1.9,0.2,2.7-1,2.9-2.7h1v6.3h-1
					c0-1.9-1.2-2.9-2.9-2.9V20c0,0.7,0,1.2,1,1.2c1.2,0,2.4,0.2,3.7-0.5c1.2-0.7,1.7-2.2,2.2-3.7h1l-0.2,5.1h-12.7v-1
					C151.5,21.2,152,21.2,152.5,21.2"/>
			</g>
			<g>
				<path class="st1" d="M173.7,21.2c-1.2,1-2.7,1.2-4.1,1.2c-1.2,0-2.4-0.2-3.2-1c-1-0.7-1.2-1.7-1.2-2.9c0-1.2,0.7-2.7,2.2-2.7
					c1,0,1.9,0.7,1.9,1.7c0,1-0.5,1.9-1.5,1.9c-0.2,0-1.2-0.5-1.2,0.2c0,0.5,0.5,0.7,0.7,1c0.5,0.2,1,0.5,1.5,0.5
					c1.2,0,2.2-0.5,2.7-1.5c0.5-1,0.2-2.2,0.2-3.2v-6.1c0-0.7-0.5-0.7-1-0.7h-1.2v-1h7.1v1h-1.2c-1,0-0.7,1-0.7,1.5V17
					C175.1,18.5,174.9,20,173.7,21.2"/>
			</g>
			<g>
				<path class="st1" d="M183.6,8.3l4.9,11.2c0.5,1,0.7,1.5,1.9,1.5v1h-6.3v-1c0.2,0,1,0,1.2-0.2V20l-1-1.9h-4.9
					c-0.2,0.5-0.5,1.2-0.5,1.9c0,1.2,1,1.2,1.9,1.2v1h-5.1v-1c1.5-0.2,2.2-1.7,2.7-2.9l4.1-9.7h1V8.3z M181.9,12.4L180,17h3.9
					L181.9,12.4z"/>
			</g>
		</g>
	</g>
</g>
</svg>
