<?xml version="1.0" encoding="utf-8"?>
<!-- Generator: Adobe Illustrator 25.4.1, SVG Export Plug-In . SVG Version: 6.00 Build 0)  -->
<svg version="1.1" id="Layer_1" xmlns="http://www.w3.org/2000/svg" xmlns:xlink="http://www.w3.org/1999/xlink" x="0px" y="0px"
	 viewBox="0 0 348 104" style="enable-background:new 0 0 348 104;" xml:space="preserve">
<style type="text/css">
	.st0{display:none;}
	.st1{display:inline;fill:#B42322;}
	.st2{display:inline;opacity:0.54;}
	.st3{clip-path:url(#SVGID_00000003067809030885929640000000875777676754164101_);}
	.st4{clip-path:url(#SVGID_00000019655432704824077160000002356357230566272432_);}
	.st5{clip-path:url(#SVGID_00000159432370600708130310000014490890987190183817_);}
	.st6{display:inline;opacity:0.9;}
	.st7{clip-path:url(#SVGID_00000016050929591138729300000017233487189505422001_);}
	.st8{fill-rule:evenodd;clip-rule:evenodd;fill:url(#SVGID_00000135664250389899302740000004499345238203580851_);}
	.st9{fill:#353535;}
	.st10{fill:none;stroke:#353535;stroke-width:0.75;stroke-miterlimit:10;}
</style>
<g>
	<g>
		<g>
			<g>
				<path class="st9" d="M5.6,32.8V10.9H11c1.4,0,2.3,0.3,3.2,0.7c0.7,0.6,1.4,1.2,1.7,2.1c0.5,0.8,0.6,2,0.6,3.4
					c0,1.2-0.3,2.1-0.7,3c-0.5,0.8-1.1,1.5-1.9,2s-1.9,0.7-3,0.7H8.4v10.2L5.6,32.8L5.6,32.8z M8.6,20.4h1.5c0.8,0,1.6-0.1,2.1-0.3
					c0.6-0.1,0.8-0.6,1.1-1.1c0.3-0.6,0.3-1.2,0.3-2.1c0-1.1-0.1-1.9-0.3-2.3c-0.2-0.6-0.6-0.8-0.8-1.2c-0.6-0.3-1.2-0.3-2.2-0.3
					H8.7L8.6,20.4L8.6,20.4z"/>
			</g>
			<g>
				<path class="st9" d="M18.4,32.8V17.3h2.9v2.2c0.6-0.8,1.2-1.6,1.7-2c0.6-0.3,1.2-0.6,1.7-0.6c0.1,0,0.1,0,0.3,0
					c0.2,0,0.1,0,0.3,0v3.2c-0.3-0.1-0.6-0.1-0.7-0.3c-0.3,0-0.6-0.1-0.7-0.1c-0.5,0-0.8,0.1-1.2,0.3c-0.5,0.3-0.7,0.7-1.1,1.2v11.3
					h-3L18.4,32.8L18.4,32.8z"/>
			</g>
			<g>
				<path class="st9" d="M31.4,33.2c-1.2,0-2.1-0.3-2.7-0.7c-0.7-0.6-1.2-1.2-1.5-2.1c-0.3-0.8-0.5-2.1-0.5-3.4v-3.6
					c0-1.5,0.1-2.6,0.5-3.4c0.3-0.8,0.7-1.6,1.5-2.1c0.7-0.6,1.6-0.7,2.7-0.7c1.4,0,2.2,0.3,2.9,0.7c0.7,0.6,1.1,1.4,1.2,2.3
					c0.1,1.1,0.3,2.2,0.3,3.6v1.4h-6.1v3.4c0,0.7,0,1.2,0.1,1.6c0.1,0.5,0.3,0.7,0.6,0.8c0.3,0.1,0.7,0.3,1.1,0.3
					c0.5,0,0.7-0.1,0.8-0.3c0.3-0.3,0.5-0.6,0.5-0.8c0-0.5,0.1-0.7,0.1-1.4v-0.8h2.7v0.3c0,1.6-0.5,2.7-1.1,3.6
					C34.2,32.6,32.9,33.2,31.4,33.2z M29.6,23.7h3.4v-1.5c0-0.7,0-1.2-0.1-1.6c-0.1-0.5-0.3-0.7-0.5-1.1c-0.3-0.3-0.6-0.5-1.1-0.5
					c-0.6,0-0.7,0.1-1.1,0.3c-0.3,0.3-0.5,0.6-0.6,1.1c-0.1,0.7-0.1,1.4-0.1,2.2L29.6,23.7C29.7,23.7,29.6,23.7,29.6,23.7z"/>
			</g>
			<g>
				<path class="st9" d="M42.1,33.2c-1.4,0-2.2-0.5-3-1.2c-0.7-0.7-1.2-1.9-1.4-3.2l2.3-0.7c0.1,1.1,0.5,1.7,0.7,2.2
					c0.5,0.6,0.7,0.7,1.5,0.7c0.6,0,0.8-0.1,1.2-0.5c0.3-0.3,0.5-0.7,0.5-1.2c0-0.5-0.1-0.7-0.3-1.2c-0.3-0.5-0.6-0.7-0.8-1.1
					l-2.6-2.3c-0.6-0.6-1.1-1.1-1.4-1.6c-0.5-0.6-0.6-1.4-0.6-2.2c0-0.7,0.1-1.6,0.6-2.1c0.5-0.6,0.7-1.1,1.5-1.4
					c0.7-0.3,1.4-0.5,2.1-0.5c1.2,0,2.2,0.5,2.9,1.2s1.1,1.7,1.1,2.9l-2,0.7c-0.1-0.5-0.1-0.9-0.4-1.4c-0.2-0.5-0.5-0.7-0.7-0.8
					c-0.3-0.2-0.6-0.5-1.1-0.5c-0.6,0-0.7,0.1-1.2,0.6c-0.3,0.3-0.5,0.7-0.5,1.1c0,0.3,0,0.6,0.1,0.7c0.1,0.3,0.3,0.6,0.7,0.7
					l2.7,2.6c0.5,0.5,0.7,0.7,1.1,1.1c0.5,0.5,0.7,0.7,0.7,1.4c0.3,0.6,0.3,1.1,0.3,1.7c0,0.8-0.1,1.6-0.6,2.2s-0.8,1.1-1.5,1.4
					C43.7,33.1,42.8,33.2,42.1,33.2z"/>
			</g>
			<g>
				<path class="st9" d="M52.9,33.2c-0.7,0-1.5-0.1-2-0.5c-0.6-0.3-0.7-0.7-1.1-1.4c-0.3-0.7-0.5-1.4-0.5-2V19.3h-1.5v-2h1.6v-4.7
					h2.9v4.7h2.5v2h-2.6v10.2c0,0.7,0.1,1.1,0.3,1.4c0.3,0.3,0.6,0.5,1.2,0.5c0.1,0,0.3,0,0.6,0c0.1,0,0.5,0,0.6,0v2
					c-0.5,0-0.7,0.1-1.1,0.1C53.5,33.2,53.1,33.2,52.9,33.2z"/>
			</g>
			<g>
				<path class="st9" d="M57.2,14.8v-3h2.9v3L57.2,14.8z M57.2,32.8V17.3h2.9v15.6L57.2,32.8L57.2,32.8z"/>
			</g>
			<g>
				<path class="st9" d="M67.2,37.8c-0.8,0-1.9-0.1-2.6-0.3c-0.7-0.3-1.4-0.6-1.9-0.8c-0.6-0.5-0.7-1.1-0.7-1.7
					c0-0.6,0.1-0.8,0.3-1.4c0.3-0.5,0.6-0.7,0.7-0.8c0.5-0.3,0.7-0.6,1.1-0.7c-0.6-0.1-0.8-0.5-1.2-0.7c-0.3-0.3-0.5-0.7-0.5-0.8
					c0-0.6,0.1-1.1,0.5-1.5c0.3-0.5,0.7-0.8,1.4-1.4c-0.7-0.5-1.1-1.1-1.4-1.7c-0.3-0.7-0.5-1.7-0.5-2.9s0.1-2.2,0.6-3
					c0.5-0.7,0.7-1.5,1.5-1.9c0.7-0.5,1.5-0.7,2.3-0.7c0.7,0,1.6,0.1,2,0.5c0.6,0.3,0.8,0.7,1.2,1.4c0.1-0.1,0.5-0.5,0.7-0.7
					c0.5-0.5,0.7-0.7,1.4-0.8l0.5-0.1l0.7,1.9c-0.3,0-0.6,0.1-0.8,0.3c-0.5,0.1-0.7,0.3-1.1,0.5c-0.3,0.1-0.6,0.3-0.7,0.5
					c0.1,0.3,0.3,0.7,0.5,1.4c0.1,0.6,0.1,1.1,0.1,1.6c0,1.1-0.1,2-0.5,2.7c-0.3,0.7-0.7,1.5-1.4,1.9c-0.7,0.5-1.5,0.7-2.6,0.7
					c-0.3,0-0.6,0-0.7,0c-0.2,0-0.7-0.5-0.9-0.5c-0.1,0.1-0.3,0.5-0.5,0.6c-0.1,0.3-0.1,0.5-0.1,0.7c0,0.3,0.1,0.5,0.3,0.6
					c0.3,0.1,0.6,0.1,0.8,0.3l2.3,0.3c1.2,0.1,2.1,0.6,2.7,1.1c0.7,0.7,0.8,1.6,0.8,2.6c0,0.7-0.3,1.6-0.7,2.1
					c-0.5,0.6-1.1,1.1-1.9,1.4C68.7,38.1,68.5,37.8,67.2,37.8z M67.4,35.6c1.1,0,1.9-0.1,2.2-0.5c0.6-0.3,0.7-0.7,0.7-1.2
					c0-0.3,0-0.7-0.1-0.7c-0.1-0.3-0.3-0.5-0.7-0.6c-0.3-0.1-0.7-0.3-1.4-0.3l-2.6-0.3c-0.3,0.3-0.5,0.5-0.6,0.7
					c-0.1,0.3-0.3,0.5-0.5,0.7c-0.2,0.2,0,0.7,0,0.8c0,0.6,0.1,0.7,0.7,1.1C65.7,35.4,66.4,35.6,67.4,35.6z M67.2,26.2
					c0.5,0,0.7-0.1,0.8-0.3c0.3-0.1,0.5-0.5,0.6-0.7c0.1-0.3,0.3-0.7,0.3-1.1c0-0.5,0.1-0.8,0.1-1.5c0-0.6,0-1.1-0.1-1.5
					c0-0.5-0.1-0.7-0.3-1.2c-0.1-0.3-0.3-0.6-0.6-0.7c-0.2-0.1-0.6-0.3-0.8-0.3c-0.5,0-0.7,0.1-0.8,0.3s-0.5,0.5-0.6,0.7
					c-0.2,0.5-0.3,0.7-0.3,1.2s-0.1,0.8-0.1,1.5c0,0.6,0,0.8,0.1,1.4c0,0.5,0.1,0.7,0.3,1.1c0.1,0.3,0.3,0.6,0.6,0.7
					C66.7,26,66.7,26.2,67.2,26.2z"/>
			</g>
			<g>
				<path class="st9" d="M79.1,33.2c-1.2,0-2.1-0.3-2.7-0.7c-0.7-0.6-1.2-1.2-1.5-2.1c-0.3-0.8-0.5-2.1-0.5-3.4v-3.6
					c0-1.5,0.1-2.6,0.5-3.4c0.3-0.8,0.7-1.6,1.5-2.1c0.7-0.6,1.6-0.7,2.7-0.7c1.4,0,2.2,0.3,2.9,0.7c0.7,0.6,1.1,1.4,1.2,2.3
					c0.1,0.9,0.3,2.2,0.3,3.6v1.4h-6.2v3.4c0,0.7,0,1.2,0.1,1.6c0.1,0.5,0.3,0.7,0.6,0.8c0.3,0.1,0.7,0.3,1.1,0.3s0.7-0.1,0.8-0.3
					c0.3-0.3,0.5-0.6,0.5-0.8c0-0.5,0.1-0.7,0.1-1.4v-0.8H83v0.3c0,1.6-0.5,2.7-1.1,3.6C81.9,32.6,80.6,33.2,79.1,33.2z M77.5,23.7
					h3.4v-1.5c0-0.7,0-1.2-0.1-1.6c-0.1-0.5-0.3-0.7-0.5-1.1C80,19.2,79.7,19,79.1,19s-0.7,0.1-1.1,0.3c-0.3,0.3-0.5,0.6-0.6,1.1
					c-0.1,0.6-0.1,1.2-0.1,2.1L77.5,23.7L77.5,23.7z"/>
			</g>
		</g>
		<g>
			<g>
				<path class="st9" d="M18.1,55.5c-1.2,0-2.1-0.3-2.7-0.7c-0.7-0.6-1.2-1.2-1.6-2.2c-0.3-0.8-0.6-2.1-0.6-3.4v-6.3
					c0-1.4,0.1-2.6,0.5-3.6c0.3-1.1,0.7-1.7,1.6-2.2c0.7-0.6,1.7-0.7,3-0.7c1.2,0,2.1,0.1,2.9,0.6c0.7,0.5,1.2,1.1,1.6,1.9
					c0.3,0.7,0.6,1.9,0.6,3v0.7h-2.6v-0.6c0-0.7,0-1.5-0.1-2c-0.1-0.6-0.3-0.8-0.7-1.2c-0.5-0.3-0.7-0.5-1.6-0.5
					c-0.7,0-1.4,0.1-1.7,0.6c-0.5,0.5-0.6,0.7-0.7,1.5c-0.2,0.7-0.1,1.4-0.1,2.1v7c0,0.8,0,1.7,0.1,2.2c0.1,0.7,0.5,1.1,0.7,1.4
					c0.5,0.3,0.8,0.5,1.6,0.5s1.2-0.1,1.6-0.6c0.5-0.3,0.7-0.7,0.7-1.5c0.1-0.7,0.3-1.5,0.3-2.3v-1.4h-2.3v-1.9h4.9v9.1h-2l-0.3-2.1
					c-0.3,0.7-0.7,1.4-1.2,1.7C19.8,55.4,19.1,55.5,18.1,55.5z"/>
			</g>
			<g>
				<path class="st9" d="M25.9,55.4V41.8h2.6v1.9C29,43,29.6,42.3,30,42c0.6-0.3,1.1-0.5,1.5-0.5h0.1c0,0,0.1,0,0.3,0v2.7
					c-0.1-0.1-0.5-0.1-0.7-0.1c-0.3,0-0.6-0.1-0.7-0.1c-0.5,0-0.7,0.1-1.1,0.3c-0.3,0.1-0.7,0.6-0.8,1.1v9.8h-2.6L25.9,55.4
					L25.9,55.4z"/>
			</g>
			<g>
				<path class="st9" d="M37.1,55.5c-1.1,0-1.7-0.3-2.3-0.7c-0.6-0.5-0.8-0.8-1.2-1.7c-0.3-0.7-0.5-1.6-0.5-2.6v-4
					c0-1.1,0.1-1.9,0.5-2.6c0.3-0.7,0.7-1.4,1.2-1.7c0.6-0.5,1.4-0.7,2.3-0.7c1.1,0,1.7,0.3,2.3,0.7c0.6,0.5,0.8,0.8,1.2,1.7
					c0.3,0.8,0.5,1.6,0.5,2.6v4c0,1.1-0.1,1.9-0.5,2.6c-0.3,0.7-0.7,1.4-1.2,1.7C39,55.3,38.2,55.5,37.1,55.5z M37.1,53.6
					c0.6,0,0.7-0.1,1.1-0.5c0.1-0.3,0.3-0.7,0.5-1.1c0-0.5,0-0.8,0-1.5v-4.1c0-0.6,0-1.1,0-1.5s-0.1-0.7-0.5-1.1
					c-0.1-0.3-0.6-0.5-1.1-0.5s-0.7,0.1-1.1,0.5c-0.4,0.4-0.3,0.7-0.5,1.1c0,0.5,0,0.8,0,1.5v4.2c0,0.6,0,0.8,0,1.5
					c0,0.5,0.1,0.7,0.5,1.1C36.3,53.6,36.8,53.6,37.1,53.6z"/>
			</g>
			<g>
				<path class="st9" d="M45.3,55.5c-0.6,0-0.8-0.1-1.2-0.5c-0.3-0.3-0.6-0.7-0.7-1.1s-0.1-0.7-0.1-1.4V41.8H46V52
					c0,0.6,0.1,0.7,0.3,1.2c0.1,0.3,0.5,0.5,0.8,0.5c0.3,0,0.6-0.1,0.8-0.3c0.3-0.1,0.6-0.5,0.8-0.6V41.9h2.6v13.5h-2.6v-1.3
					c-0.5,0.5-0.8,0.7-1.5,1.1C46.5,55.4,46,55.5,45.3,55.5z"/>
			</g>
			<g>
				<path class="st9" d="M53.6,59.7V41.8h2.6V43c0.3-0.5,0.7-0.7,1.1-0.8c0.5-0.3,0.8-0.5,1.5-0.5c0.7,0,1.2,0.1,1.7,0.6
					s0.7,0.7,0.8,1.4c0.2,0.6,0.5,1.1,0.5,1.7c0,0.6,0.1,1.1,0.1,1.5v3.4c0,0.8-0.1,1.9-0.3,2.6c-0.1,0.7-0.6,1.6-1.1,2.1
					c-0.6,0.6-1.2,0.7-2.1,0.7c-0.6,0-0.8-0.1-1.4-0.5c-0.5-0.3-0.7-0.6-1.1-0.7v5.4C56,59.7,53.6,59.7,53.6,59.7z M57.8,53.6
					c0.5,0,0.7-0.1,0.8-0.6c0.1-0.3,0.3-0.7,0.5-1.4c0.1-0.6,0.1-1.2,0.1-1.9v-3.4c0-0.6,0-1.1-0.1-1.6c0-0.6-0.1-0.7-0.5-1.2
					c-0.3-0.2-0.5-0.3-0.8-0.3c-0.3,0-0.7,0.1-0.8,0.3c-0.3,0.1-0.6,0.3-0.7,0.6v8.6c0.3,0.1,0.6,0.3,0.7,0.5
					C57.2,53.6,57.4,53.6,57.8,53.6z"/>
			</g>
		</g>
	</g>
	<g>
		<g>
			<path class="st9" d="M5,81.4l3.7-8.2h1.2l3.6,8.2h-1.2L9,73.9h0.6l-3.4,7.5H5z M6.8,79.3L7,78.5h4.7l0.5,0.8H6.8z"/>
		</g>
		<g>
			<path class="st9" d="M18.3,81.4c-1.1,0-2-0.3-2.6-0.8c-0.7-0.7-0.8-1.6-0.8-2.7v-4.7h1.2v4.7c0,0.8,0.3,1.6,0.7,2
				c0.5,0.5,0.8,0.7,1.7,0.7s1.4-0.3,1.7-0.7c0.5-0.5,0.7-1.1,0.7-2v-4.7h0.8V78c0,1.2-0.3,2.1-0.8,2.7
				C20.3,81.1,19.3,81.4,18.3,81.4z"/>
		</g>
		<g>
			<path class="st9" d="M25.8,81.4v-7.2h-2.7v-1.1h6.8v1.1h-2.7v7.2H25.8z"/>
		</g>
		<g>
			<path class="st9" d="M32.1,81.4h-1.2v-8.3h1.2V81.4z M37,77.7h-5v-1.1h4.9L37,77.7L37,77.7z M37,73.1h1.2v8.2H37V73.1z"/>
		</g>
		<g>
			<path class="st9" d="M44.3,81.4c-0.7,0-1.2-0.1-1.7-0.3c-0.6-0.3-1.1-0.6-1.5-0.8c-0.5-0.5-0.7-0.7-0.8-1.4
				c-0.2-0.6-0.3-1.1-0.3-1.7s0.1-1.2,0.3-1.7c0.1-0.6,0.6-0.8,0.8-1.4c0.5-0.5,0.7-0.7,1.5-0.8c0.6-0.1,1.2-0.1,1.7-0.1
				c0.7,0,1.2,0.1,1.7,0.3c0.6,0.3,1.1,0.6,1.5,0.8c0.5,0.3,0.7,0.7,0.8,1.4c0.3,0.6,0.3,1.1,0.3,1.7c0,0.7-0.1,1.2-0.3,1.7
				c-0.3,0.6-0.6,0.8-0.8,1.4c-0.6,0.3-0.9,0.6-1.5,0.8C45.7,81.4,44.9,81.4,44.3,81.4z M44.3,80.3c0.5,0,0.8-0.1,1.4-0.3
				c0.5-0.1,0.7-0.5,1.1-0.7c0.3-0.3,0.6-0.7,0.7-1.1s0.3-0.7,0.3-1.4c0-0.5-0.1-0.8-0.3-1.4c-0.1-0.5-0.5-0.7-0.7-1.1
				c-0.3-0.3-0.7-0.6-1.1-0.7s-0.8-0.2-1.4-0.2c-0.6,0-0.8,0.1-1.4,0.3c-0.5,0.1-0.7,0.5-1.1,0.7c-0.3,0.3-0.6,0.7-0.7,1.1
				C41,76,40.9,76.3,40.9,77c0,0.5,0.1,0.8,0.3,1.4c0.1,0.5,0.5,0.7,0.7,1.1c0.3,0.3,0.7,0.6,1.1,0.7C43.4,80.2,43.8,80.3,44.3,80.3
				z"/>
		</g>
		<g>
			<path class="st9" d="M50.5,81.4v-8.3h3.2c0.7,0,1.4,0.1,1.9,0.5c0.6,0.3,0.8,0.6,1.2,1.1c0.3,0.5,0.5,0.8,0.5,1.6
				c0,0.7-0.1,1.1-0.5,1.6c-0.3,0.5-0.7,0.7-1.2,0.8c-0.5,0.1-1.2,0.2-1.9,0.2h-2.6l0.6-0.6v3L50.5,81.4L50.5,81.4L50.5,81.4z
				 M51.7,78.5l-0.6-0.6h2.6c0.7,0,1.4-0.1,1.7-0.6c0.5-0.5,0.6-0.7,0.6-1.4c0-0.7-0.1-1.1-0.6-1.4c-0.5-0.3-0.8-0.6-1.7-0.6h-2.6
				l0.6-0.6V78.5z M56,81.4l-2-3h1.4l2.1,3H56z"/>
		</g>
		<g>
			<path class="st9" d="M59.1,81.4v-8.3h1.2v8.2L59.1,81.4L59.1,81.4z"/>
		</g>
		<g>
			<path class="st9" d="M65.2,81.4c-0.7,0-1.2-0.1-1.9-0.3c-0.6-0.1-1.1-0.5-1.4-0.7l0.5-0.8c0.3,0.3,0.7,0.6,1.2,0.7
				c0.6,0.1,1.1,0.3,1.6,0.3c0.6,0,0.8,0,1.2-0.1c0.3-0.1,0.6-0.3,0.7-0.5c0.1-0.1,0.3-0.5,0.3-0.7c0-0.3-0.1-0.6-0.3-0.7
				c-0.1-0.1-0.5-0.3-0.7-0.5c-0.3-0.1-0.7-0.3-0.8-0.3c-0.5-0.1-0.7-0.1-1.1-0.3c-0.5-0.1-0.7-0.3-0.8-0.5
				c-0.2-0.2-0.6-0.5-0.7-0.7c-0.1-0.3-0.3-0.7-0.3-1.1s0.1-0.7,0.5-1.2c0.3-0.5,0.6-0.7,1.1-0.8c0.6-0.3,1.1-0.3,1.9-0.3
				c0.6,0,0.8,0,1.5,0.1c0.6,0.1,0.8,0.3,1.2,0.6l-0.7,0.9c-0.5-0.3-0.7-0.5-1.1-0.6C66.6,74,66.3,74,65.8,74c-0.6,0-0.7,0-1.2,0.1
				S64,74.4,64,74.6c-0.1,0-0.2,0.3-0.2,0.7s0.1,0.6,0.3,0.7c0.1,0.1,0.5,0.3,0.7,0.5c0.3,0.1,0.7,0.1,0.8,0.3
				c0.3,0.1,0.7,0.1,1.1,0.3c0.5,0.2,0.7,0.3,0.8,0.5c0.3,0.1,0.6,0.5,0.7,0.7c0.1,0.3,0.3,0.7,0.3,1.1s-0.1,0.7-0.5,1.2
				s-0.6,0.7-1.1,0.8C66.5,81.4,65.8,81.4,65.2,81.4z"/>
		</g>
		<g>
			<path class="st9" d="M71.2,80.3H76v1.1h-6v-8.3h5.8v1.1h-4.7L71.2,80.3L71.2,80.3z M71,76.7h4.2v1.1H71V76.7z"/>
		</g>
		<g>
			<path class="st9" d="M77.9,81.4v-8.3h3.4c0.8,0,1.7,0.1,2.3,0.6c0.7,0.5,1.2,0.7,1.6,1.5c0.5,0.7,0.6,1.4,0.6,2.1
				c0,0.7-0.1,1.6-0.6,2.1c-0.5,0.7-0.8,1.1-1.6,1.5c-0.7,0.5-1.5,0.6-2.3,0.6L77.9,81.4L77.9,81.4z M79.1,80.3h2.2
				c0.7,0,1.4-0.1,1.7-0.5c0.5-0.3,0.8-0.7,1.2-1.1c0.3-0.6,0.5-1.1,0.5-1.6c0-0.7-0.1-1.2-0.5-1.6C84,75,83.6,74.8,83,74.4
				c-0.6-0.3-1.1-0.5-1.7-0.5h-2.2V80.3z"/>
		</g>
		<g>
			<path class="st9" d="M8.1,93.1c-0.6,0-1.1-0.1-1.5-0.3c-0.5-0.1-0.7-0.5-1.1-0.7l0.5-0.8c0.3,0.3,0.6,0.5,0.8,0.6
				C7.2,91.9,7.6,92,8,92c0.5,0,0.7,0,0.8-0.1c0.3-0.1,0.5-0.3,0.6-0.5c0.1-0.1,0.1-0.5,0.1-0.6c0-0.3-0.1-0.5-0.3-0.6
				c-0.1-0.1-0.5-0.3-0.6-0.5c-0.3-0.1-0.6-0.1-0.7-0.3c-0.3,0-0.6-0.1-0.8-0.3c-0.5-0.1-0.6-0.1-0.8-0.4c-0.3-0.1-0.5-0.3-0.6-0.6
				c0,0-0.2-0.1-0.2-0.6s0.1-0.7,0.3-0.8c0-0.3,0.5-0.6,0.7-0.7C7,86.2,7.3,86,8,86c0.5,0,0.7,0,1.2,0.1c0.5,0.1,0.7,0.3,1.1,0.5
				L10,87.3c-0.3-0.1-0.7-0.5-0.8-0.5c-0.3-0.1-0.7-0.1-0.8-0.1c-0.5,0-0.7,0-0.8,0.1C7.2,86.9,7,87.1,7,87.3
				c-0.1,0.1-0.1,0.5-0.1,0.6c0,0.3,0.1,0.5,0.3,0.6c0.1,0.1,0.5,0.3,0.6,0.5C8,89,8.3,89,8.4,89.2c0.3,0.1,0.6,0.1,0.8,0.3
				c0.3,0.1,0.6,0.1,0.7,0.3c0.3,0.1,0.5,0.3,0.6,0.6c0.1,0.3,0.3,0.6,0.3,0.8c0,0.3-0.1,0.7-0.3,0.8c-0.1,0.3-0.6,0.6-0.8,0.7
				C9,92.9,8.7,93.1,8.1,93.1z"/>
		</g>
		<g>
			<path class="st9" d="M11.1,92.9l3-6.8h0.8l3,6.8h-1.1L14,86.6h0.5l-2.6,6.2H11.1z M12.4,91.2l0.3-0.7h3.6l0.3,0.7H12.4z"/>
		</g>
		<g>
			<path class="st9" d="M19.2,92.9v-6.8H20v6h3.6v0.8H19.2z"/>
		</g>
		<g>
			<path class="st9" d="M25.8,92.1h4v0.7h-4.8v-6.8h4.7v0.7H26L25.8,92.1L25.8,92.1z M25.8,89.2h3.4v0.7h-3.4V89.2z"/>
		</g>
		<g>
			<path class="st9" d="M33.3,93.1c-0.6,0-1.1-0.1-1.5-0.3c-0.5-0.2-0.7-0.5-1.1-0.7l0.5-0.7c0.3,0.3,0.6,0.5,0.8,0.6
				c0.5,0.1,0.7,0.3,1.2,0.3c0.5,0,0.7,0,0.8-0.1c0.3-0.1,0.5-0.3,0.6-0.5c0.1-0.1,0.1-0.5,0.1-0.6c0-0.3-0.1-0.5-0.3-0.6
				c-0.1-0.1-0.5-0.3-0.6-0.5c-0.3-0.1-0.6-0.1-0.7-0.3c-0.3,0-0.6-0.1-0.8-0.3c-0.5-0.1-0.6-0.1-0.7-0.5c-0.3-0.1-0.5-0.3-0.6-0.6
				c-0.1,0-0.1-0.3-0.1-0.7s0.1-0.7,0.3-0.8c0.2-0.2,0.6-0.6,0.7-0.7c0.5-0.1,0.8-0.3,1.5-0.3c0.5,0,0.7,0,1.2,0.1
				c0.5,0.1,0.7,0.3,1.1,0.5l-0.3,0.7c-0.3-0.1-0.7-0.5-0.8-0.5c-0.3-0.1-0.7-0.1-0.8-0.1c-0.5,0-0.7,0-0.8,0.1
				c-0.2,0.1-0.5,0.3-0.6,0.5c-0.1,0.1-0.1,0.5-0.1,0.6c0,0.3,0.1,0.5,0.3,0.6c0.1,0.1,0.5,0.3,0.6,0.5c0.3,0.1,0.6,0.1,0.7,0.3
				c0.3,0.1,0.6,0.1,0.8,0.3c0.3,0.1,0.6,0.1,0.7,0.3c0.3,0.1,0.5,0.3,0.6,0.6c0.1,0.3,0.3,0.6,0.3,0.8c0,0.5-0.1,0.7-0.3,0.8
				c-0.1,0.3-0.6,0.6-0.8,0.7C34.4,92.9,33.8,93.1,33.3,93.1z"/>
		</g>
		<g>
			<path class="st9" d="M40,92.9v-6.8h2.6c0.6,0,1.1,0.1,1.5,0.3c0.5,0.1,0.7,0.5,0.8,0.7c0.3,0.5,0.5,0.7,0.5,1.4
				c0,0.6-0.1,0.8-0.5,1.4c-0.3,0.5-0.6,0.7-0.8,0.7c-0.5,0.1-0.8,0.3-1.5,0.3h-2.1l0.5-0.5v2.3L40,92.9L40,92.9z M41,90.5l-0.5-0.6
				h2.1c0.7,0,1.1-0.1,1.5-0.5c0.4-0.4,0.6-0.7,0.6-1.1c0-0.6-0.1-0.7-0.6-1.1c-0.5-0.3-0.7-0.5-1.5-0.5h-2.1l0.5-0.6V90.5z"/>
		</g>
		<g>
			<path class="st9" d="M45.7,92.9l3-6.8h0.8l3,6.8h-1.1l-2.6-6.2h0.5l-2.7,6.2H45.7z M46.8,91.2l0.3-0.7h3.7l0.3,0.7H46.8z"/>
		</g>
		<g>
			<path class="st9" d="M53.6,92.9v-6.8h2.6c0.6,0,1.1,0.1,1.5,0.3c0.5,0.2,0.7,0.5,0.8,0.7c0.3,0.5,0.5,0.7,0.5,1.4
				c0,0.6-0.1,0.8-0.5,1.4c-0.3,0.5-0.6,0.7-0.8,0.7c-0.5,0.2-0.8,0.5-1.5,0.5h-2.1l0.5-0.5V93L53.6,92.9
				C53.6,93.1,53.6,92.9,53.6,92.9z M54.6,90.5l-0.5-0.6h2c0.7,0,1.1-0.1,1.5-0.5c0.3-0.3,0.6-0.7,0.6-1.1c0-0.6-0.1-0.7-0.6-1.1
				c-0.5-0.3-0.7-0.5-1.5-0.5H54l0.5-0.6v4L54.6,90.5L54.6,90.5z M58.2,92.9l-1.7-2.6h1.1l1.7,2.6H58.2z"/>
		</g>
		<g>
			<path class="st9" d="M61.8,92.9v-6h-2.3v-0.7h5.6v0.7h-2.3v6H61.8z"/>
		</g>
		<g>
			<path class="st9" d="M66.2,92.9v-6.8h0.7l4.6,5.6H71v-5.6h0.8v6.8h-0.7l-4.6-5.6H67v5.6H66.2z"/>
		</g>
		<g>
			<path class="st9" d="M74.9,92.1h4v0.7h-4.8v-6.8h4.7v0.7h-3.7C74.9,87,74.9,92.1,74.9,92.1z M74.9,89.2h3.4v0.7h-3.4V89.2z"/>
		</g>
		<g>
			<path class="st9" d="M80.4,92.9v-6.8H83c0.6,0,1.1,0.1,1.5,0.3c0.5,0.1,0.7,0.5,0.8,0.7c0.3,0.5,0.5,0.7,0.5,1.4
				c0,0.6-0.1,0.8-0.5,1.4c-0.3,0.5-0.6,0.7-0.8,0.7c-0.5,0.1-0.8,0.3-1.5,0.3h-2.1l0.5-0.5v2.3L80.4,92.9L80.4,92.9z M81.4,90.5
				l-0.5-0.6H83c0.7,0,1.1-0.1,1.5-0.5c0.3-0.3,0.6-0.7,0.6-1.1c0-0.6-0.1-0.7-0.6-1.1c-0.5-0.3-0.7-0.5-1.5-0.5h-2.1l0.5-0.6V90.5z
				 M85,92.9l-1.8-2.5h1.1L86,93L85,92.9L85,92.9z"/>
		</g>
	</g>
	<g>
		<g>
			<rect x="5" y="64" class="st9" width="81.4" height="0.7"/>
		</g>
	</g>
</g>
<line class="st10" x1="93.2" y1="7.9" x2="93.2" y2="96.1"/>
<g>
	<path class="st9" d="M99.4,18.1h12.7c9.2,0,15.4,5.5,15.4,14s-6.3,14-15.4,14H99.4V18.1z M111.7,40.8c5.6,0,9.2-3.3,9.2-8.7
		s-3.6-8.7-9.2-8.7h-5.9v17.3H111.7z"/>
	<path class="st9" d="M159.2,40.1h-13l-2.5,6h-6.6l12.5-28h6.4l12.5,28h-6.8L159.2,40.1z M157.1,35.2l-4.4-10.7l-4.4,10.7H157.1z"/>
	<path class="st9" d="M205.8,18.1v28h-6.5V34.6h-12.7v11.5h-6.5v-28h6.5v11h12.7v-11H205.8z"/>
	<path class="st9" d="M221.3,18.1h6.5v28h-6.5V18.1z"/>
	<path class="st9" d="M241,43.3l2.2-4.9c2.4,1.7,5.9,2.9,9.2,2.9c3.8,0,5.4-1.3,5.4-3c0-5.2-16.3-1.6-16.3-12
		c0-4.8,3.8-8.7,11.8-8.7c3.5,0,7.1,0.8,9.7,2.5l-2,4.9c-2.6-1.5-5.3-2.2-7.8-2.2c-3.8,0-5.3,1.4-5.3,3.2c0,5.2,16.3,1.6,16.3,11.9
		c0,4.7-3.9,8.7-11.9,8.7C247.9,46.6,243.4,45.2,241,43.3z"/>
	<path class="st9" d="M295.9,40.1h-13l-2.5,6h-6.6l12.5-28h6.4l12.5,28h-6.8L295.9,40.1z M293.8,35.2l-4.4-10.7L285,35.2H293.8z"/>
	<path class="st9" d="M334.7,46.1l-5.4-7.8H329h-5.6v7.8h-6.5v-28H329c7.5,0,12.1,3.9,12.1,10.2c0,4.2-2.1,7.3-5.8,8.8l6.3,9H334.7z
		 M328.6,23.4h-5.3v9.8h5.3c4,0,6-1.8,6-4.9C334.6,25.2,332.6,23.4,328.6,23.4z"/>
	<path class="st9" d="M123.8,85.9l0-16.8l-8.2,13.8h-2.9l-8.2-13.5v16.4h-6.1v-28h5.4l10.5,17.4l10.3-17.4h5.3l0.1,28H123.8z"/>
	<path class="st9" d="M136.5,57.9h6.5v28h-6.5V57.9z"/>
	<path class="st9" d="M167.4,85.9l-5.4-7.8h-0.3h-5.6v7.8h-6.5v-28h12.1c7.5,0,12.1,3.9,12.1,10.2c0,4.2-2.1,7.3-5.8,8.8l6.3,9
		H167.4z M161.4,63.2h-5.3v9.8h5.3c4,0,6-1.8,6-4.9C167.3,65,165.3,63.2,161.4,63.2z"/>
	<path class="st9" d="M197.4,79.9h-13l-2.5,6h-6.6l12.5-28h6.4l12.5,28h-6.8L197.4,79.9z M195.4,75l-4.4-10.7L186.5,75H195.4z"/>
	<path class="st9" d="M238.7,85.9l-5.4-7.8H233h-5.6v7.8h-6.5v-28H233c7.5,0,12.1,3.9,12.1,10.2c0,4.2-2.1,7.3-5.8,8.8l6.3,9H238.7z
		 M232.7,63.2h-5.3v9.8h5.3c4,0,6-1.8,6-4.9C238.6,65,236.6,63.2,232.7,63.2z"/>
	<path class="st9" d="M248.5,71.9c0-8.3,6.5-14.5,15.3-14.5c8.8,0,15.3,6.1,15.3,14.5c0,8.4-6.5,14.5-15.3,14.5
		C255,86.4,248.5,80.2,248.5,71.9z M272.6,71.9c0-5.3-3.8-9-8.8-9s-8.8,3.6-8.8,9c0,5.3,3.8,9,8.8,9S272.6,77.2,272.6,71.9z"/>
	<path class="st9" d="M302.1,79.9h-13l-2.5,6H280l12.5-28h6.4l12.5,28h-6.8L302.1,79.9z M300,75l-4.4-10.7L291.1,75H300z"/>
	<path class="st9" d="M314.2,57.9H327c9.2,0,15.4,5.5,15.4,14c0,8.5-6.3,14-15.4,14h-12.7V57.9z M326.6,80.6c5.6,0,9.2-3.3,9.2-8.7
		c0-5.4-3.6-8.7-9.2-8.7h-5.9v17.3H326.6z"/>
</g>
</svg>
