<?xml version="1.0" encoding="utf-8"?>
<!-- Generator: Adobe Illustrator 25.4.1, SVG Export Plug-In . SVG Version: 6.00 Build 0)  -->
<svg version="1.1" id="Layer_1" xmlns="http://www.w3.org/2000/svg" xmlns:xlink="http://www.w3.org/1999/xlink" x="0px" y="0px"
	 viewBox="0 0 348 104" style="enable-background:new 0 0 348 104;" xml:space="preserve">
<style type="text/css">
	.st0{fill:#808184;}
	.st1{fill:#F48220;}
	.st2{fill:#595A5C;}
	.st3{fill:#A7A9AC;}
	.st4{fill:none;stroke:#595A5C;stroke-width:0.4532;stroke-miterlimit:10;}
</style>
<g>
	<g>
		<path class="st0" d="M14.5,36.4l5.9,0.8l-0.6,2.2c-2.2,9.5,0.3,19.3,6.3,26.3C18.8,54.3,19.6,39.5,28,29l-7.2-4.5
			C18.1,28.1,15.9,32.2,14.5,36.4"/>
		<path class="st0" d="M62.1,29c8.4,10.5,9.2,25.3,1.8,36.7c6.1-7,8.5-16.8,6.2-26.3l-0.6-2.2l5.9-0.8c-1.4-4.3-3.4-8.4-6.3-12.1
			L62.1,29z"/>
		<g>
			<path class="st1" d="M45.1,78.7c-15.4,0-28.2-11-31-25.7L6,55.4c3.7,18.2,19.8,31.8,39.1,31.8s35.2-13.6,39.1-31.8L76,53
				C73.3,67.6,60.5,78.7,45.1,78.7"/>
			<path class="st2" d="M9,52.4l6.7-1.9l0.4,2.2c1.8,9.9,8.5,17.9,17.3,21.6c-12.7-6.9-18.9-21.5-15.4-35.2l-8.4-1.2
				C8.5,42.6,8.3,47.6,9,52.4"/>
			<path class="st2" d="M72,39.1c3.4,13.8-2.8,28.3-15.4,35.2c8.8-3.9,15.4-11.7,17.2-21.6l0.4-2.2l6.7,1.9
				c0.7-4.8,0.6-9.6-0.6-14.6L72,39.1z"/>
			<path class="st3" d="M25.9,25.3l5,3.2l-1.4,1.8c-5.5,6.9-7.4,15.7-5.9,23.8c-0.6-12.7,6.6-24.6,18-30l-4.4-7.3
				C32.9,19,29.2,21.9,25.9,25.3"/>
			<path class="st3" d="M48.4,24.2c11.6,5.4,18.7,17.3,18,30c1.5-8.3-0.4-16.9-5.9-23.8l-1.4-1.8l5-3.2c-3.2-3.4-7-6.3-11.4-8.4
				L48.4,24.2z"/>
		</g>
	</g>
	<g>
		<path class="st2" d="M113.5,27h-4.6l-11,25.2h6.1l2-5.3h9.7l2.1,5.3h6.3L113.5,27z M107.9,42.1l3.1-7.9l3.1,7.9H107.9z"/>
		<path class="st2" d="M140.1,41.5c3.6-0.7,5.4-3.4,5.4-6.9c0-5.9-4.3-7.7-9.4-7.7h-9.7v25.2h5.5v-10h2.7l5.2,10.1h6.6L140.1,41.5z
			 M135,37.5h-3.3v-5.7h3.7c2,0,4.3,0.4,4.3,2.9C139.7,37.4,137.1,37.5,135,37.5"/>
		<path class="st2" d="M186.2,27h-4.6l-10.5,24.2l-11.2-12.5l11.3-11.8h-7.2l-9.8,10.5V27h-5.5v25.2h5.5V40.3l10.2,11.9h12.4l2-5.3
			h9.7l2.1,5.3h6.3L186.2,27z M180.7,42.1l3.1-7.9l3.1,7.9H180.7z"/>
		<path class="st2" d="M207.3,27h-8.4v25.2h9.1c7.5,0,14.2-4.4,14.2-12.5C222.1,30.4,215.4,27,207.3,27 M207.4,47.1h-2.9v-15h3.3
			c4.7,0,8.6,2.3,8.6,7.3C216.5,45.1,212.5,47.1,207.4,47.1"/>
		<polygon class="st2" points="223.7,27 223.7,52.1 241.4,52.1 241.4,47.1 229.3,47.1 229.3,41.9 240.2,41.9 240.2,36.8 229.3,36.8 
			229.3,32.1 240.8,32.1 240.8,27 		"/>
		<g>
			<path class="st1" d="M267.4,41.5c3.6-0.7,5.4-3.4,5.4-6.9c0-5.9-4.3-7.7-9.5-7.7h-9.7v25.2h5.5v-10h2.7l5.2,10.1h6.6L267.4,41.5z
				 M262.4,37.5h-3.3v-5.7h3.7c2,0,4.3,0.4,4.3,2.9C267.1,37.4,264.5,37.5,262.4,37.5"/>
			<path class="st1" d="M289.5,27h-4.6L274,52.2h6.1l2-5.3h9.8l2.1,5.3h6.3L289.5,27z M284,42.1l3.1-7.9l3.1,7.9H284z"/>
			<path class="st1" d="M315.8,41.5c3.6-0.7,5.4-3.4,5.4-6.9c0-5.9-4.3-7.7-9.4-7.7H302v25.2h5.5v-10h2.7l5.2,10.1h6.6L315.8,41.5z
				 M310.9,37.5h-3.3v-5.7h3.7c2,0,4.3,0.4,4.3,2.9C315.4,37.4,312.8,37.5,310.9,37.5"/>
			<polygon class="st1" points="324.3,27 324.3,52.1 342,52.1 342,47.1 329.8,47.1 329.8,41.9 340.8,41.9 340.8,36.8 329.8,36.8 
				329.8,32.1 341.4,32.1 341.4,27 			"/>
		</g>
	</g>
	<g>
		<path class="st2" d="M104.9,77.2v-14h6.3c1.6,0,2.9,0.4,3.7,1c0.9,0.6,1.2,1.5,1.2,2.6c0,0.7-0.1,1.4-0.5,1.9s-0.7,0.9-1.4,1.2
			c-0.6,0.2-1.2,0.4-1.9,0.4l0.4-0.6c0.7,0,1.5,0.1,2.1,0.4s1.1,0.7,1.5,1.2s0.5,1.2,0.5,2c0,1.2-0.5,2.1-1.4,2.7s-2.2,1-4,1h-6.7
			v0.2H104.9z M106.8,75.5h4.6c1.1,0,2-0.2,2.5-0.6c0.6-0.4,0.9-1,0.9-1.7c0-0.9-0.2-1.4-0.9-1.7c-0.6-0.4-1.5-0.6-2.5-0.6h-4.7
			v-1.6h4.2c1,0,1.7-0.1,2.4-0.6c0.6-0.5,0.9-1,0.9-1.7s-0.2-1.4-0.9-1.7c-0.6-0.4-1.4-0.6-2.4-0.6h-4.1
			C106.8,64.5,106.8,75.5,106.8,75.5z"/>
		<path class="st2" d="M125.6,77.2h-2v-14h2V77.2z M133.8,70.9h-8.5v-1.7h8.5V70.9z M133.7,63.1h2v14h-2V63.1z"/>
		<path class="st2" d="M141.4,77.2l6.3-14h2l6.3,14h-2.1l-5.7-12.9h0.7l-5.7,12.9C143.3,77.2,141.4,77.2,141.4,77.2z M144,73.7
			l0.5-1.6h7.8l0.6,1.6H144z"/>
		<path class="st2" d="M161.7,77.2v-14h1.6l9.3,11.6h-0.9V63.1h2v14h-1.6l-9.3-11.6h0.9v11.6C163.7,77.2,161.7,77.2,161.7,77.2z"/>
		<path class="st2" d="M181.6,77.2v-14h5.8c1.5,0,2.9,0.2,4,0.9c1.1,0.6,2,1.4,2.6,2.5s1,2.2,1,3.6s-0.4,2.6-1,3.6s-1.5,1.9-2.6,2.5
			s-2.5,0.9-4,0.9H181.6L181.6,77.2z M183.5,75.4h3.7c1.1,0,2.1-0.2,3-0.6c0.9-0.5,1.5-1.1,2-1.9c0.5-0.7,0.7-1.7,0.7-2.7
			s-0.2-2-0.7-2.7s-1.1-1.4-2-1.9s-1.9-0.6-3-0.6h-3.7V75.4z"/>
		<path class="st2" d="M207.5,77.3c-1.9,0-3.2-0.5-4.4-1.6s-1.6-2.6-1.6-4.6v-8h2v7.8c0,1.6,0.4,2.7,1,3.5c0.7,0.7,1.6,1.1,2.9,1.1
			c1.2,0,2.2-0.4,3-1.1c0.7-0.7,1-1.9,1-3.5v-7.8h2v8c0,2-0.5,3.6-1.6,4.6C210.8,76.8,209.4,77.3,207.5,77.3z"/>
		<path class="st2" d="M221.1,77.2v-14h5.5c1.2,0,2.2,0.2,3.1,0.6c0.9,0.4,1.5,1,2,1.7s0.7,1.6,0.7,2.6s-0.2,1.9-0.7,2.6
			s-1.1,1.2-2,1.7c-0.9,0.4-1.9,0.6-3.1,0.6h-4.4l0.9-1v5.2L221.1,77.2L221.1,77.2z M223.1,72.2l-0.9-1h4.4c1.2,0,2.2-0.2,2.9-0.9
			c0.6-0.6,1-1.4,1-2.4s-0.4-1.7-1-2.4c-0.6-0.6-1.6-0.9-2.9-0.9h-4.4l0.9-1V72.2z"/>
		<path class="st2" d="M250.3,77.3c-0.7-1-1.4-2.1-1.7-3.4c-0.4-1.2-0.6-2.6-0.6-4.1s0.2-2.9,0.6-4.1c0.4-1.2,1-2.4,1.7-3.4h1.9
			c-0.7,1.1-1.4,2.4-1.7,3.6c-0.4,1.2-0.6,2.6-0.6,4s0.2,2.7,0.6,4s1,2.4,1.7,3.6h-1.9V77.3z"/>
		<path class="st2" d="M261.7,77.2l-4.7-14h2.1l4.4,12.9h-1l4.5-12.9h1.9l4.4,12.9h-1l4.4-12.9h1.9l-4.7,14h-2.1l-4.1-11.9h0.5
			l-4.1,11.9H261.7z"/>
		<path class="st2" d="M286.4,75.4h8.2v1.7h-10.2v-14h9.9v1.7h-7.8v10.6C286.5,75.4,286.4,75.4,286.4,75.4z M286.2,69.2h7.2v1.7
			h-7.2V69.2z"/>
		<path class="st2" d="M305.5,77.3c-1.1,0-2.1-0.1-3.1-0.5s-1.7-0.7-2.4-1.2l0.7-1.6c0.5,0.5,1.2,0.9,2,1.1c0.9,0.2,1.7,0.5,2.6,0.5
			s1.5-0.1,2-0.2c0.5-0.2,0.9-0.5,1.1-0.7c0.2-0.4,0.4-0.7,0.4-1.1c0-0.5-0.1-0.9-0.5-1.1s-0.7-0.5-1.2-0.7c-0.5-0.1-1-0.4-1.6-0.5
			s-1.2-0.2-1.9-0.5c-0.6-0.1-1.1-0.4-1.6-0.7c-0.5-0.4-0.9-0.6-1.2-1.1c-0.4-0.5-0.5-1.1-0.5-1.9s0.2-1.4,0.6-2s1-1.1,1.7-1.5
			s1.9-0.5,3-0.5c0.9,0,1.6,0.1,2.4,0.4c0.7,0.2,1.5,0.5,2.1,0.9l-0.6,1.6c-0.6-0.4-1.2-0.7-1.9-0.9c-0.6-0.1-1.4-0.2-2-0.2
			c-0.7,0-1.5,0.1-2,0.2c-0.5,0.2-0.9,0.5-1.1,0.7c-0.2,0.4-0.4,0.7-0.4,1.1c0,0.5,0.1,0.9,0.5,1.1s0.7,0.5,1.2,0.7s1,0.4,1.6,0.5
			s1.2,0.2,1.9,0.5c0.6,0.1,1.1,0.4,1.6,0.6s0.9,0.6,1.2,1.1c0.2,0.5,0.5,1.1,0.5,1.7c0,0.7-0.2,1.4-0.6,2s-1,1.1-1.7,1.5
			C307.7,77.2,306.6,77.3,305.5,77.3z"/>
		<path class="st2" d="M319.9,77.2V64.9h-4.8v-1.7h11.6v1.7h-4.8v12.3C321.9,77.2,319.9,77.2,319.9,77.2z"/>
		<path class="st2" d="M332.9,77.3H331c0.9-1.1,1.4-2.4,1.7-3.6s0.6-2.6,0.6-4s-0.2-2.7-0.6-4s-1-2.4-1.7-3.6h1.9
			c0.7,1,1.4,2.1,1.7,3.4s0.6,2.6,0.6,4.1s-0.2,2.9-0.6,4.1C334.2,75.2,333.7,76.3,332.9,77.3z"/>
	</g>
	<line class="st4" x1="90.8" y1="23.9" x2="90.8" y2="80.1"/>
</g>
</svg>
