<?xml version="1.0" encoding="utf-8"?>
<!-- Generator: Adobe Illustrator 25.4.1, SVG Export Plug-In . SVG Version: 6.00 Build 0)  -->
<svg version="1.1" id="Layer_1" xmlns="http://www.w3.org/2000/svg" xmlns:xlink="http://www.w3.org/1999/xlink" x="0px" y="0px"
	 viewBox="0 0 348 104" style="enable-background:new 0 0 348 104;" xml:space="preserve">
<style type="text/css">
	.st0{display:none;}
	.st1{display:inline;fill:url(#SVGID_1_);}
	.st2{display:inline;fill:url(#SVGID_00000172442143596739929390000017921323729821574543_);}
	.st3{display:inline;fill:url(#SVGID_00000024710349873450585160000000688008210273964163_);}
	.st4{display:inline;fill:url(#SVGID_00000008130553058858235850000008799524018150463141_);}
	.st5{fill:#FFFFFF;}
	.st6{fill:#942521;}
	.st7{fill:none;stroke:#231F20;stroke-width:0.5;stroke-miterlimit:10;}
	.st8{fill:#AE9268;}
	.st9{fill:#231F20;}
	.st10{fill:none;stroke:#000000;stroke-miterlimit:10;}
	.st11{fill:#243E4C;}
	.st12{fill:#E53E33;}
</style>
<g class="st0">
	
		<linearGradient id="SVGID_1_" gradientUnits="userSpaceOnUse" x1="150.8798" y1="-2506.9475" x2="162.3083" y2="-2560.376" gradientTransform="matrix(1 0 0 -1 0 -2496)">
		<stop  offset="0" style="stop-color:#2B3990"/>
		<stop  offset="1" style="stop-color:#005938"/>
	</linearGradient>
	<path class="st1" d="M156.8,49.7c-6.2,0-11.3-4.7-11.3-11.3s5.1-11.2,11.3-11.2S168,31.8,168,38.4S163,49.7,156.8,49.7z
		 M156.8,43.3c2.8,0,4.3-2,4.3-4.9c0-3-1.5-4.9-4.3-4.9s-4.3,1.9-4.3,4.9C152.5,41.4,154,43.3,156.8,43.3z"/>
	
		<linearGradient id="SVGID_00000087389730658428156350000004322283692616050365_" gradientUnits="userSpaceOnUse" x1="173.7492" y1="-2502.0554" x2="185.1779" y2="-2555.4841" gradientTransform="matrix(1 0 0 -1 0 -2496)">
		<stop  offset="0" style="stop-color:#2B3990"/>
		<stop  offset="1" style="stop-color:#006838"/>
	</linearGradient>
	<path style="display:inline;fill:url(#SVGID_00000087389730658428156350000004322283692616050365_);" d="M180.5,43.8l-3.3,5.7h-7.8
		l7.2-11.3L169,27.6h8.1l3.9,5.5l3.2-5.5h7.8l-7.1,11.1l7.7,10.8h-8.1L180.5,43.8z"/>
	
		<linearGradient id="SVGID_00000121982174797886356150000006115125192309900936_" gradientUnits="userSpaceOnUse" x1="198.174" y1="-2496.8308" x2="209.6025" y2="-2550.2595" gradientTransform="matrix(1 0 0 -1 0 -2496)">
		<stop  offset="0" style="stop-color:#2B3990"/>
		<stop  offset="1" style="stop-color:#006838"/>
	</linearGradient>
	<path style="display:inline;fill:url(#SVGID_00000121982174797886356150000006115125192309900936_);" d="M192.6,27.6h7.9l3.5,7.8
		l3.5-7.8h7.7l-7.9,15.3v6.7h-6.9v-6.7L192.6,27.6z"/>
</g>
<g class="st0">
	
		<linearGradient id="SVGID_00000111885129909601993080000000409458632266209154_" gradientUnits="userSpaceOnUse" x1="214.4355" y1="-2493.3525" x2="225.864" y2="-2546.781" gradientTransform="matrix(1 0 0 -1 0 -2496)">
		<stop  offset="0" style="stop-color:#2B3990"/>
		<stop  offset="1" style="stop-color:#006838"/>
	</linearGradient>
	<path style="display:inline;fill:url(#SVGID_00000111885129909601993080000000409458632266209154_);" d="M251,74h-50v-9.9
		l23.6-25.2c1.8-1.9,3.3-3.7,4.5-5.3s2.2-3.1,3-4.4s1.3-2.6,1.6-3.7c0.3-1.2,0.5-2.3,0.5-3.3c0-3.2-0.8-5.8-2.5-7.6
		c-1.6-1.9-4-2.8-7-2.8c-1.7,0-3.2,0.3-4.5,0.9s-2.4,1.5-3.3,2.6s-1.6,2.4-2,3.9c-0.5,1.5-0.7,3.1-0.7,4.9h-14.5
		c0-3.3,0.6-6.4,1.8-9.3s2.9-5.4,5.1-7.6s4.9-3.9,8-5.2c2.9-1.4,6.4-2,10.3-2c3.8,0,7.2,0.5,10.2,1.4c3,1,5.4,2.3,7.4,4.1
		s3.5,3.9,4.6,6.5c1,2.6,1.6,5.5,1.6,8.7c0,2.4-0.4,4.8-1.2,7.1s-1.9,4.5-3.3,6.8s-3.1,4.6-5.1,6.9c-2,2.3-4.2,4.7-6.6,7.2
		l-12.9,13.6H251V74z"/>
</g>
<path class="st5" d="M68.3,31.5l-6.5,2.1c0.1,0.7,0.1,1.5,0.1,2.3h6.7C68.7,34.4,68.5,33,68.3,31.5z M43.9,9.4L43.6,16
	c2.3,0.2,4.5,0.9,6.5,1.8l2.9-5.9C50.2,10.6,47.1,9.7,43.9,9.4z M29.8,11.8c-2.9,1.3-5.5,3.1-7.7,5.2l4.6,4.8
	c1.6-1.6,3.4-2.9,5.4-3.8L29.8,11.8z M15,29c-0.6,2.2-0.9,4.5-0.9,6.9h6.7c0-1.4,0.2-2.8,0.5-4.2L15,29z M20.4,18.9
	c-2,2.3-3.6,4.9-4.6,7.8l6.2,2.6c0.7-2,1.8-3.9,3.1-5.6L20.4,18.9z M41.4,9.3c-3.2,0-6.4,0.5-9.2,1.6l2.3,6.2
	c2.1-0.7,4.3-1.1,6.7-1.2L41.4,9.3L41.4,9.3z M55.2,13l-2.9,5.9c1.9,1.2,3.6,2.6,5,4.4l5-4.4C60.4,16.6,57.9,14.5,55.2,13z
	 M63.9,20.9l-5.1,4.4c1.1,1.8,2,3.7,2.5,5.8l6.4-2.1C67,26.1,65.6,23.4,63.9,20.9z"/>
<path class="st6" d="M147.2,29.6c0-0.3,0-0.8,0.1-1.3h2.9c0,0.2,0,0.6,0,0.9c0,1,0.9,2.2,2.9,2.2c1.6,0,2.5-0.8,2.5-2
	c0-1.6-1.7-2.1-3.1-2.5c-2.7-0.8-5.2-1.9-5.2-5.2s2.4-5.3,5.8-5.3c3.4,0,5.6,2.1,5.6,5.8h-3.1c0-1.8-0.8-2.9-2.4-2.9
	c-1.4,0-2.3,0.7-2.3,2.1c0,1.5,1.4,1.9,3.2,2.5c2.9,0.8,5,2.1,5,5.3c0,3.6-2.7,5.1-5.9,5.1C149.2,34.4,147.2,32.3,147.2,29.6"/>
<path class="st6" d="M170.8,16.7h4.4l5.4,17.3h-3.7l-0.9-3h-6.2l-0.9,3.1h-3.5L170.8,16.7z M175.1,27.7l-1.4-5.1l-0.6-2.7H173
	l-0.6,2.7l-1.5,5.1H175.1L175.1,27.7z"/>
<path class="st6" d="M192.8,34.4c-4.4,0-6.8-2.4-6.8-7.2V16.8h3.7v10.4c0,2.7,1,4,3.1,4s3.1-1.3,3.1-4V16.8h3.7v10.4
	C199.5,32,197.3,34.4,192.8,34.4"/>
<path class="st6" d="M206.2,16.7h7.2c3.8,0,5.5,1.8,5.5,4.5c0,2.2-1.1,3.6-3.1,4l0,0c2.3,0.4,3.4,1.9,3.4,4.2c0,2.9-1.9,4.6-5.6,4.6
	h-7.5V16.7H206.2z M212.7,23.9c1.6,0,2.3-0.7,2.3-2.1s-0.8-2.1-2.3-2.1h-3v4.2C209.7,23.9,212.7,23.9,212.7,23.9z M213.1,31.1
	c1.6,0,2.3-0.7,2.3-2.1s-0.8-2.1-2.3-2.1h-3.4v4.2C209.7,31.1,213.1,31.1,213.1,31.1z"/>
<polygon class="st6" points="239.3,34.1 235.6,34.1 235.6,27.6 229.6,27.6 229.6,34.1 225.9,34.1 225.9,16.7 229.6,16.7 229.6,23.7 
	235.6,23.7 235.6,16.7 239.3,16.7 "/>
<path class="st6" d="M250.3,16.7h4.4L260,34h-3.7l-0.8-3.1h-6.2l-0.9,3.1h-3.6L250.3,16.7z M254.6,27.7l-1.4-5.1l-0.6-2.7h-0.1
	l-0.6,2.7l-1.5,5.1H254.6L254.6,27.7z"/>
<path class="st6" d="M272.3,16.4c2.5,0,4.8,1.4,6.3,3.4l-2.8,2.2c-0.8-1.1-2.1-1.8-3.5-1.8c-2.5,0-4.5,2.3-4.5,5.2s2,5.1,4.5,5.1
	c1.8,0,3.3-1.1,4.1-2.7H273v-3.1h7.3v1c-0.1,4.9-3.7,8.7-8.1,8.7s-7.9-4-7.9-9C264.3,20.5,267.8,16.4,272.3,16.4"/>
<polygon class="st6" points="294,27.7 294,34.1 290.3,34.1 290.3,27.7 284.9,16.7 288.7,16.7 291,21.7 292.2,24.3 293.4,21.7 
	295.7,16.7 299.5,16.7 "/>
<path class="st6" d="M309.9,16.7h4.4l5.4,17.3H316l-0.8-3.1H309l-0.9,3.1h-3.6L309.9,16.7z M314.2,27.7l-1.5-5.1l-0.6-2.7H312
	l-0.6,2.7l-1.5,5.1H314.2L314.2,27.7L314.2,27.7z"/>
<polygon class="st6" points="340.6,34.1 337.4,34.1 337.4,25.6 337.5,20.9 337.5,20.9 333.5,34.1 330.5,34.1 326.4,20.9 326.4,20.9 
	326.5,25.6 326.5,34.1 323.3,34.1 323.3,16.7 328.5,16.7 331.1,25.9 332,29.6 332.1,29.6 333,25.9 335.6,16.7 340.6,16.7 "/>
<line class="st7" x1="345.6" y1="79.6" x2="146.4" y2="79.6"/>
<g>
	<polygon class="st8" points="146.9,71.9 155.4,71.9 146.9,63.5 	"/>
	<polygon class="st8" points="192.3,71.9 192.3,63.5 183.8,71.9 	"/>
	<polygon class="st8" points="192.3,41.2 169.6,63.9 146.9,41.2 146.9,45.3 167.5,66 164,69.5 146.9,52.3 146.9,56.5 162.3,71.9 
		165.7,71.9 169.6,68 173.5,71.9 176.9,71.9 192.3,56.5 192.3,52.3 175.2,69.5 171.7,66 192.3,45.3 	"/>
</g>
<g>
	<polygon class="st9" points="197.7,73.2 202,51.3 209,67.1 216.3,51.3 220.1,73.2 217,73.2 215,60.9 208.9,74.1 203.1,60.9 
		200.9,73.2 	"/>
	<path class="st9" d="M223.4,62.9c0-2.9,1.1-5.3,3.2-7.4c2.1-2.1,4.6-3.1,7.6-3.1c2.9,0,5.4,1,7.5,3.1s3.1,4.6,3.1,7.5
		s-1,5.4-3.1,7.5s-4.6,3.1-7.6,3.1c-2.6,0-5-0.9-7.1-2.7C224.6,68.8,223.4,66.2,223.4,62.9 M226.5,62.9c0,2.3,0.8,4.1,2.3,5.6
		s3.2,2.2,5.2,2.2c2.1,0,3.9-0.7,5.4-2.2s2.2-3.3,2.2-5.5c0-2.2-0.7-4-2.2-5.5c-1.4-1.5-3.2-2.2-5.4-2.2c-2.1,0-3.9,0.7-5.4,2.2
		C227.3,59,226.5,60.8,226.5,62.9"/>
	<polygon class="st9" points="248.6,73.2 248.6,51.4 263.5,67 263.5,52.8 266.6,52.8 266.6,74.4 251.7,58.9 251.7,73.2 	"/>
	<polygon class="st9" points="277.1,55.7 277.1,73.2 274,73.2 274,55.7 269.3,55.7 269.3,52.8 281.8,52.8 281.8,55.7 	"/>
	<path class="st9" d="M295.4,68.2h-8.7l-2.3,5h-3.3l10.1-21.7l9.7,21.7h-3.4L295.4,68.2z M294.2,65.3l-3-6.9l-3.2,6.9H294.2z"/>
	<polygon class="st9" points="303.5,73.2 303.5,51.4 318.4,67 318.4,52.8 321.4,52.8 321.4,74.4 306.5,58.9 306.5,73.2 	"/>
	<path class="st9" d="M338.5,68.2h-8.7l-2.3,5h-3.3l10.1-21.7l9.7,21.7h-3.4L338.5,68.2z M337.2,65.3l-3-6.9l-3.2,6.9H337.2z"/>
</g>
<path class="st9" d="M206.6,39.8v1.7c-0.8-0.7-1.7-1-2.6-1c-1,0-1.8,0.4-2.5,1.1c-0.7,0.7-1,1.6-1,2.6s0.3,1.9,1,2.5
	c0.7,0.7,1.5,1,2.5,1c0.5,0,0.9-0.1,1.3-0.2c0.2-0.1,0.4-0.2,0.6-0.3c0.2-0.1,0.4-0.3,0.7-0.5v1.7c-0.8,0.5-1.7,0.7-2.6,0.7
	c-1.4,0-2.5-0.5-3.5-1.4c-1-1-1.4-2.1-1.4-3.5c0-1.2,0.4-2.3,1.2-3.3c1-1.2,2.3-1.8,3.9-1.8C204.9,39.1,205.8,39.3,206.6,39.8"/>
<path class="st9" d="M216.8,44c0-1.3,0.5-2.5,1.5-3.5s2.2-1.5,3.6-1.5c1.4,0,2.5,0.5,3.5,1.5s1.5,2.1,1.5,3.5s-0.5,2.5-1.5,3.5
	s-2.2,1.4-3.6,1.4c-1.2,0-2.3-0.4-3.3-1.3C217.3,46.8,216.8,45.5,216.8,44 M218.3,44c0,1.1,0.4,1.9,1.1,2.6c0.7,0.7,1.5,1,2.5,1
	s1.9-0.3,2.5-1c0.7-0.7,1-1.6,1-2.6s-0.3-1.9-1-2.6c-0.7-0.7-1.5-1-2.5-1s-1.8,0.3-2.5,1C218.6,42.1,218.3,43,218.3,44"/>
<path class="st9" d="M237.1,48.8v-9.6h2c1,0,1.7,0.1,2.3,0.3s1.1,0.5,1.6,0.9c1,0.9,1.5,2.1,1.5,3.6s-0.5,2.7-1.5,3.6
	c-0.5,0.5-1.1,0.8-1.6,0.9c-0.5,0.2-1.3,0.3-2.3,0.3C239.1,48.8,237.1,48.8,237.1,48.8z M238.6,47.5h0.7c0.6,0,1.2-0.1,1.6-0.2
	c0.4-0.1,0.8-0.4,1.2-0.7c0.7-0.6,1.1-1.5,1.1-2.5c0-1.1-0.4-1.9-1.1-2.6c-0.6-0.6-1.6-0.9-2.8-0.9h-0.7V47.5z"/>
<polygon class="st9" points="262.5,40.6 258.6,40.6 258.6,42.9 262.4,42.9 262.4,44.3 258.6,44.3 258.6,47.5 262.5,47.5 262.5,48.8 
	257.2,48.8 257.2,39.2 262.5,39.2 "/>
<polygon class="st9" points="274.6,48.8 274.6,38.6 281.6,45.9 281.6,39.2 283.1,39.2 283.1,49.4 276.1,42.1 276.1,48.8 "/>
<path class="st9" d="M299.9,46.5h-4.1l-1.1,2.3h-1.6l4.7-10.2l4.6,10.2h-1.6L299.9,46.5z M299.3,45.1l-1.4-3.3l-1.5,3.3H299.3z"/>
<polygon class="st9" points="311.6,48.8 313.6,38.5 316.9,46 320.3,38.5 322.1,48.8 320.6,48.8 319.7,43 316.9,49.3 314.1,43 
	313.1,48.8 "/>
<polygon class="st9" points="338.5,40.6 334.7,40.6 334.7,42.9 338.4,42.9 338.4,44.3 334.7,44.3 334.7,47.5 338.5,47.5 338.5,48.8 
	333.2,48.8 333.2,39.2 338.5,39.2 "/>
<g>
	<path class="st9" d="M153,90.7v3.2h-2.2v-9.6h3.4c0.7,0,1.3,0.1,1.7,0.2c0.5,0.2,0.9,0.4,1.2,0.7c0.3,0.3,0.5,0.6,0.7,1
		c0.1,0.4,0.2,0.8,0.2,1.2c0,0.5-0.1,0.9-0.2,1.3c-0.2,0.4-0.4,0.7-0.7,1s-0.7,0.5-1.2,0.7s-1.1,0.2-1.7,0.2H153V90.7z M153,89h1.2
		c0.6,0,1-0.1,1.3-0.4s0.4-0.7,0.4-1.2c0-0.2,0-0.4-0.1-0.6s-0.2-0.3-0.3-0.5s-0.3-0.2-0.5-0.3c-0.2-0.1-0.4-0.1-0.7-0.1H153V89z"/>
	<path class="st9" d="M168.6,93.9h-1.7c-0.2,0-0.4,0-0.5-0.1s-0.2-0.2-0.3-0.3l-0.6-1.7h-3.7l-0.6,1.7c0,0.1-0.1,0.2-0.3,0.3
		c-0.1,0.1-0.3,0.1-0.5,0.1h-1.7l3.7-9.6h2.3L168.6,93.9z M162.4,90.2h2.6l-0.9-2.6c-0.1-0.2-0.1-0.4-0.2-0.6
		c-0.1-0.2-0.2-0.5-0.2-0.7c-0.1,0.3-0.1,0.5-0.2,0.7c-0.1,0.2-0.1,0.4-0.2,0.6L162.4,90.2z"/>
	<path class="st9" d="M173.2,92.1h3.6v1.8H171v-9.6h2.2V92.1z"/>
	<path class="st9" d="M188.3,93.9h-1.7c-0.2,0-0.4,0-0.5-0.1s-0.2-0.2-0.3-0.3l-0.6-1.7h-3.7l-0.6,1.7c0,0.1-0.1,0.2-0.3,0.3
		s-0.3,0.1-0.5,0.1h-1.7l3.7-9.6h2.3L188.3,93.9z M182.1,90.2h2.6l-0.9-2.6c-0.1-0.2-0.1-0.4-0.2-0.6s-0.2-0.5-0.2-0.7
		c-0.1,0.3-0.1,0.5-0.2,0.7c-0.1,0.2-0.1,0.4-0.2,0.6L182.1,90.2z"/>
	<path class="st9" d="M196,86.2c-0.1,0.1-0.1,0.2-0.2,0.2c-0.1,0.1-0.2,0.1-0.3,0.1s-0.2,0-0.3-0.1s-0.2-0.1-0.4-0.2
		s-0.3-0.2-0.5-0.2c-0.2-0.1-0.4-0.1-0.6-0.1c-0.4,0-0.7,0.1-0.9,0.3c-0.2,0.2-0.3,0.4-0.3,0.7c0,0.2,0.1,0.4,0.2,0.5
		s0.3,0.2,0.5,0.3c0.2,0.1,0.4,0.2,0.7,0.3s0.5,0.2,0.8,0.3s0.5,0.2,0.8,0.3c0.3,0.1,0.5,0.3,0.7,0.5s0.4,0.4,0.5,0.7
		c0.1,0.3,0.2,0.6,0.2,1s-0.1,0.9-0.2,1.2s-0.4,0.7-0.7,1s-0.7,0.5-1.1,0.7c-0.4,0.2-0.9,0.2-1.5,0.2c-0.3,0-0.6,0-0.9-0.1
		c-0.3-0.1-0.6-0.1-0.9-0.3c-0.3-0.1-0.6-0.2-0.8-0.4c-0.3-0.2-0.5-0.3-0.7-0.5l0.7-1c0-0.1,0.1-0.1,0.2-0.2c0.1,0,0.2-0.1,0.3-0.1
		s0.3,0,0.4,0.1c0.1,0.1,0.3,0.2,0.5,0.3c0.2,0.1,0.4,0.2,0.6,0.3c0.2,0.1,0.5,0.1,0.8,0.1c0.4,0,0.7-0.1,0.9-0.3
		c0.2-0.2,0.3-0.5,0.3-0.8c0-0.2-0.1-0.4-0.2-0.5c-0.1-0.1-0.3-0.3-0.5-0.3s-0.4-0.2-0.7-0.2c-0.3-0.1-0.5-0.1-0.8-0.2
		s-0.5-0.2-0.8-0.3c-0.3-0.1-0.5-0.3-0.7-0.5s-0.4-0.5-0.5-0.8s-0.2-0.7-0.2-1.1s0.1-0.7,0.2-1.1c0.1-0.3,0.4-0.6,0.6-0.9
		c0.3-0.3,0.6-0.5,1-0.6c0.4-0.2,0.9-0.2,1.4-0.2c0.3,0,0.6,0,0.9,0.1c0.3,0,0.5,0.1,0.8,0.2s0.5,0.2,0.7,0.3
		c0.2,0.1,0.4,0.3,0.6,0.4L196,86.2z"/>
	<path class="st9" d="M201.7,90.7v3.2h-2.2v-9.6h3.4c0.7,0,1.3,0.1,1.7,0.2c0.5,0.2,0.9,0.4,1.2,0.7c0.3,0.3,0.5,0.6,0.7,1
		s0.2,0.8,0.2,1.2c0,0.5-0.1,0.9-0.2,1.3c-0.2,0.4-0.4,0.7-0.7,1s-0.7,0.5-1.2,0.7s-1.1,0.2-1.7,0.2h-1.2V90.7z M201.7,89h1.2
		c0.6,0,1-0.1,1.3-0.4s0.4-0.7,0.4-1.2c0-0.2,0-0.4-0.1-0.6s-0.2-0.3-0.3-0.5c-0.1-0.1-0.3-0.2-0.5-0.3c-0.2-0.1-0.4-0.1-0.7-0.1
		h-1.2L201.7,89L201.7,89z"/>
	<path class="st9" d="M215.6,84.3V86h-3.9v2.2h3v1.7h-3v2.3h3.9v1.7h-6.2v-9.6C209.4,84.3,215.6,84.3,215.6,84.3z"/>
	<path class="st9" d="M224.8,90.7v3.2h-2.2v-9.6h3.4c0.7,0,1.3,0.1,1.7,0.2c0.5,0.2,0.9,0.4,1.2,0.7c0.3,0.3,0.5,0.6,0.7,1
		s0.2,0.8,0.2,1.2c0,0.5-0.1,0.9-0.2,1.3c-0.2,0.4-0.4,0.7-0.7,1s-0.7,0.5-1.2,0.7s-1.1,0.2-1.7,0.2h-1.2V90.7z M224.8,89h1.2
		c0.6,0,1-0.1,1.3-0.4s0.4-0.7,0.4-1.2c0-0.2,0-0.4-0.1-0.6s-0.2-0.3-0.3-0.5c-0.1-0.1-0.3-0.2-0.5-0.3c-0.2-0.1-0.4-0.1-0.7-0.1
		h-1.2L224.8,89L224.8,89z"/>
	<path class="st9" d="M241,93.9h-2.2v-4.1h-3.9v4.1h-2.2v-9.6h2.2v4h3.9v-4h2.2V93.9z"/>
	<path class="st9" d="M253.1,93.9h-1.7c-0.2,0-0.4,0-0.5-0.1s-0.2-0.2-0.3-0.3l-0.6-1.7h-3.7l-0.6,1.7c0,0.1-0.1,0.2-0.3,0.3
		s-0.3,0.1-0.5,0.1h-1.7l3.7-9.6h2.3L253.1,93.9z M247,90.2h2.6l-0.9-2.6c-0.1-0.2-0.1-0.4-0.2-0.6s-0.2-0.5-0.2-0.7
		c-0.1,0.3-0.1,0.5-0.2,0.7c-0.1,0.2-0.1,0.4-0.2,0.6L247,90.2z"/>
	<path class="st9" d="M261.4,84.3V86h-2.7v7.8h-2.2V86h-2.7v-1.8h7.6V84.3z"/>
	<path class="st9" d="M271.8,93.9h-1.7c-0.2,0-0.4,0-0.5-0.1s-0.2-0.2-0.3-0.3l-0.6-1.7H265l-0.6,1.7c0,0.1-0.1,0.2-0.3,0.3
		s-0.3,0.1-0.5,0.1h-1.7l3.7-9.6h2.3L271.8,93.9z M265.6,90.2h2.6l-0.9-2.6c-0.1-0.2-0.1-0.4-0.2-0.6s-0.2-0.5-0.2-0.7
		c-0.1,0.3-0.1,0.5-0.2,0.7s-0.1,0.4-0.2,0.6L265.6,90.2z"/>
	<path class="st9" d="M273.8,92.7c0-0.1,0-0.3,0.1-0.4s0.1-0.2,0.2-0.3c0.1-0.1,0.2-0.2,0.3-0.2c0.1-0.1,0.3-0.1,0.5-0.1
		s0.4,0,0.5,0.1s0.3,0.2,0.4,0.3c0.1,0.1,0.2,0.2,0.2,0.4c0,0.2,0.1,0.3,0.1,0.5s0,0.5-0.1,0.7s-0.2,0.5-0.3,0.7s-0.3,0.5-0.5,0.7
		s-0.4,0.5-0.7,0.7l-0.4-0.3l-0.1-0.1c0,0,0-0.1,0-0.2v-0.1c0-0.1,0.1-0.1,0.1-0.1c0.1-0.1,0.1-0.1,0.2-0.2s0.1-0.2,0.2-0.3
		c0.1-0.1,0.1-0.2,0.2-0.3c0.1-0.1,0.1-0.2,0.1-0.3c-0.2,0-0.3-0.1-0.4-0.1s-0.2-0.1-0.3-0.2c-0.1-0.1-0.2-0.2-0.2-0.3
		S273.8,92.9,273.8,92.7z"/>
	<path class="st9" d="M285.2,90.7v3.2H283v-9.6h3.4c0.7,0,1.3,0.1,1.7,0.2c0.5,0.2,0.9,0.4,1.2,0.7c0.3,0.3,0.5,0.6,0.7,1
		s0.2,0.8,0.2,1.2c0,0.5-0.1,0.9-0.2,1.3c-0.2,0.4-0.4,0.7-0.7,1c-0.3,0.3-0.7,0.5-1.2,0.7s-1.1,0.2-1.7,0.2h-1.2V90.7z M285.2,89
		h1.2c0.6,0,1-0.1,1.3-0.4s0.4-0.7,0.4-1.2c0-0.2,0-0.4-0.1-0.6s-0.2-0.3-0.3-0.5c-0.1-0.1-0.3-0.2-0.5-0.3
		c-0.2-0.1-0.4-0.1-0.7-0.1h-1.2L285.2,89L285.2,89z"/>
	<path class="st9" d="M300.9,93.9h-1.7c-0.2,0-0.4,0-0.5-0.1s-0.2-0.2-0.3-0.3l-0.6-1.7h-3.7l-0.6,1.7c0,0.1-0.1,0.2-0.3,0.3
		s-0.3,0.1-0.5,0.1H291l3.7-9.6h2.3L300.9,93.9z M294.7,90.2h2.6l-0.9-2.6c-0.1-0.2-0.1-0.4-0.2-0.6s-0.2-0.5-0.2-0.7
		c-0.1,0.3-0.1,0.5-0.2,0.7s-0.1,0.4-0.2,0.6L294.7,90.2z"/>
	<path class="st9" d="M304.6,84.3c0.1,0,0.1,0,0.2,0s0.1,0.1,0.2,0.1c0,0,0.1,0.1,0.2,0.2l4.6,5.8c0-0.2,0-0.4,0-0.5s0-0.3,0-0.5
		v-5.1h2v9.6h-1.2c-0.2,0-0.3,0-0.4-0.1s-0.2-0.1-0.3-0.3l-4.5-5.7c0,0.2,0,0.3,0,0.5s0,0.3,0,0.5V94h-2v-9.6L304.6,84.3
		C304.5,84.3,304.6,84.3,304.6,84.3z"/>
	<path class="st9" d="M314,84.3h1.8c0.2,0,0.4,0,0.5,0.1s0.2,0.2,0.3,0.3l1.9,5.1c0.1,0.2,0.2,0.5,0.3,0.7c0.1,0.3,0.2,0.5,0.2,0.8
		c0.1-0.3,0.1-0.6,0.2-0.8c0.1-0.3,0.2-0.5,0.2-0.7l1.8-5.1c0-0.1,0.1-0.2,0.3-0.3c0.1-0.1,0.3-0.1,0.5-0.1h1.8l-3.9,9.6h-2
		L314,84.3z"/>
	<path class="st9" d="M332.3,84.3V86h-3.9v2.2h3v1.7h-3v2.3h3.9v1.7h-6.2v-9.6C326.1,84.3,332.3,84.3,332.3,84.3z"/>
	<path class="st9" d="M337.4,92.1h3.6v1.8h-5.8v-9.6h2.2L337.4,92.1L337.4,92.1z"/>
</g>
<line class="st10" x1="137" y1="13" x2="137" y2="93.5"/>
<g>
	<path class="st11" d="M39.2,36.6c-6.2,0-12.5,4.4-12.5,12.9c0,8.5,6.3,12.9,12.5,12.9c6.2,0,12.5-4.4,12.5-12.9
		C51.7,41.1,45.4,36.6,39.2,36.6 M39.2,55.7c-3,0-5.6-2.4-5.6-6.2c0-3.8,2.5-6.2,5.6-6.2c3,0,5.6,2.4,5.6,6.2
		C44.8,53.3,42.3,55.7,39.2,55.7"/>
	<polyline class="st12" points="103.7,49.5 103.7,49.5 103.7,49.5 103.7,49.5 	"/>
	<path class="st12" d="M96.7,36.6v1.3c-0.9-0.4-1.9-0.8-2.9-1c-0.4-0.1-0.9-0.2-1.3-0.2c-0.4,0-0.8-0.1-1.2-0.1c-0.1,0-0.1,0-0.2,0
		c-3.3,0-6.6,1.3-9,3.7l0,0L77,45.6L68.9,54c0,0,0,0,0,0c-0.7,0.7-1.6,1.3-2.6,1.5c-0.4,0.1-0.9,0.2-1.3,0.2c0,0,0,0,0,0
		c-2.9,0-0.2,0,0,0h-5.6V43.3H65c3,0,5.6,2.4,5.6,6.2c0,0.2,0,0.3,0,0.5l5.3-5.5l0.5-0.5c-2.1-4.8-6.8-7.3-11.4-7.3H52.5v25.8H65
		c0.8,0,1.5-0.1,2.3-0.2c0.3-0.1,0.6-0.1,0.9-0.2c0.3-0.1,0.6-0.2,0.9-0.3c1.8-0.6,3.4-1.6,4.8-2.9l0.4-0.4l4.9-5.1
		c0,0,8-8.6,8.9-9.2c1.2-0.8,2.6-0.8,3.1-0.8c0,0,0,0,0,0c3,0,5.6,2.4,5.6,6.2c0,3.8-2.5,6.2-5.6,6.2c-3,0-5.6-2.4-5.6-6.2
		c0-0.2,0-0.3,0-0.5l-5.3,5.5l-0.5,0.5c2.1,4.8,6.8,7.3,11.4,7.3c1.9,0,3.8-0.4,5.6-1.3v1.3h6.9V36.6H96.7z"/>
	<polygon class="st11" points="123.3,36.6 117.3,52.8 111.4,36.6 104.2,36.6 114,61.2 109.8,71.3 116.7,71.3 120.6,61.4 130.5,36.6 
			"/>
	<polygon class="st11" points="22.9,33.2 15.8,33.2 9.1,33.2 9.1,39.2 15.8,39.2 15.8,62.1 22.9,62.1 22.9,39.2 29.6,39.2 
		29.6,33.2 	"/>
	<path class="st11" d="M15.8,67.3h1.4c0.6,0,1,0.4,1,1c0,0.4-0.3,0.7-0.5,0.8c0.3,0.1,0.7,0.4,0.7,1c0,0.7-0.5,1.2-1.3,1.2h-1.4
		V67.3z M17,68.8c0.3,0,0.4-0.2,0.4-0.4c0-0.2-0.1-0.4-0.4-0.4h-0.4v0.7H17z M17.1,70.5c0.4,0,0.5-0.2,0.5-0.5
		c0-0.3-0.2-0.5-0.5-0.5h-0.5v1H17.1z"/>
	<polygon class="st11" points="21.7,69.7 20.3,69.7 20.3,71.3 19.5,71.3 19.5,67.3 20.3,67.3 20.3,68.9 21.7,68.9 21.7,67.3 
		22.6,67.3 22.6,71.3 21.7,71.3 	"/>
	<path class="st11" d="M25.8,67.3l1.4,3.9h-0.9l-0.2-0.6h-1.5l-0.2,0.6h-0.9l1.4-3.9H25.8z M25.8,69.8l-0.5-1.4l-0.5,1.4H25.8z"/>
	<path class="st11" d="M28.1,67.3h1.5c1,0,1.8,0.8,1.8,2c0,1.2-0.8,2-1.8,2h-1.5V67.3z M29.5,70.5c0.6,0,1-0.5,1-1.1
		c0-0.7-0.3-1.1-1-1.1H29v2.3H29.5z"/>
	<path class="st11" d="M33.7,70h-0.5v1.3h-0.8v-3.9h1.4c0.8,0,1.3,0.5,1.3,1.4c0,0.6-0.2,0.9-0.7,1.2l0.9,1.4h-0.9L33.7,70z
		 M33.7,69.3c0.3,0,0.6-0.1,0.6-0.6c0-0.4-0.2-0.6-0.6-0.6h-0.4v1.1H33.7z"/>
	<polygon class="st11" points="36.3,67.3 38.5,67.3 38.5,68.1 37.1,68.1 37.1,68.9 38.2,68.9 38.2,69.7 37.1,69.7 37.1,70.5 
		38.5,70.5 38.5,71.3 36.3,71.3 	"/>
	<path class="st11" d="M39.4,70.3l0.7-0.3c0.1,0.3,0.3,0.5,0.7,0.5c0.2,0,0.5-0.1,0.5-0.4c0-0.2-0.1-0.3-0.5-0.5l-0.2-0.1
		c-0.5-0.2-1-0.5-1-1.1c0-0.7,0.5-1.1,1.2-1.1c0.7,0,1.1,0.4,1.2,0.8l-0.6,0.4c-0.2-0.3-0.4-0.4-0.6-0.4c-0.2,0-0.4,0.1-0.4,0.3
		c0,0.2,0.1,0.3,0.5,0.5l0.3,0.1c0.7,0.3,1,0.6,1,1.1c0,0.8-0.7,1.2-1.3,1.2C40.1,71.3,39.6,70.9,39.4,70.3"/>
	<polygon class="st11" points="45.3,69.7 43.9,69.7 43.9,71.3 43.1,71.3 43.1,67.3 43.9,67.3 43.9,68.9 45.3,68.9 45.3,67.3 
		46.1,67.3 46.1,71.3 45.3,71.3 	"/>
	<path class="st11" d="M51.2,70.9c-0.2,0.1-0.3,0.2-0.5,0.3c-0.2,0.1-0.4,0.1-0.6,0.1c-0.2,0-0.3,0-0.5-0.1
		c-0.2-0.1-0.3-0.1-0.4-0.2c-0.1-0.1-0.2-0.2-0.3-0.4c-0.1-0.1-0.1-0.3-0.1-0.5v0c0-0.2,0.1-0.5,0.2-0.6c0.1-0.2,0.3-0.3,0.5-0.4
		c-0.1-0.1-0.2-0.3-0.2-0.4c0-0.1-0.1-0.3-0.1-0.4v0c0-0.1,0-0.3,0.1-0.4c0-0.1,0.1-0.2,0.2-0.3c0.1-0.1,0.2-0.2,0.3-0.2
		c0.1-0.1,0.3-0.1,0.5-0.1c0.2,0,0.3,0,0.4,0.1c0.1,0,0.2,0.1,0.3,0.2c0.1,0.1,0.2,0.2,0.2,0.3c0,0.1,0.1,0.2,0.1,0.4v0
		c0,0.1,0,0.2-0.1,0.4c0,0.1-0.1,0.2-0.2,0.3c-0.1,0.1-0.1,0.2-0.2,0.2c-0.1,0.1-0.2,0.1-0.3,0.2l0.5,0.5c0.1-0.1,0.1-0.2,0.2-0.3
		c0.1-0.1,0.1-0.2,0.2-0.3l0.6,0.3c-0.1,0.1-0.1,0.3-0.2,0.4c-0.1,0.1-0.2,0.3-0.3,0.4l0.5,0.6l-0.6,0.4L51.2,70.9z M50.2,70.6
		c0.1,0,0.2,0,0.3-0.1c0.1,0,0.2-0.1,0.3-0.2l-0.7-0.8c-0.1,0.1-0.2,0.1-0.3,0.2c-0.1,0.1-0.1,0.2-0.1,0.3v0c0,0.1,0,0.2,0.1,0.3
		C50,70.6,50.1,70.6,50.2,70.6 M50.3,68.9c0.2-0.1,0.3-0.1,0.4-0.2c0.1-0.1,0.1-0.2,0.1-0.3v0c0-0.1,0-0.2-0.1-0.3
		C50.6,68,50.6,68,50.5,68c-0.1,0-0.2,0-0.3,0.1c-0.1,0.1-0.1,0.2-0.1,0.3v0c0,0.1,0,0.2,0.1,0.2C50.2,68.7,50.2,68.8,50.3,68.9"/>
	<path class="st11" d="M54.9,67.3h1.4c0.6,0,1,0.4,1,1c0,0.4-0.3,0.7-0.5,0.8c0.3,0.1,0.7,0.4,0.7,1c0,0.7-0.5,1.2-1.3,1.2h-1.4
		V67.3z M56.2,68.8c0.3,0,0.4-0.2,0.4-0.4c0-0.2-0.1-0.4-0.4-0.4h-0.4v0.7H56.2z M56.3,70.5c0.4,0,0.5-0.2,0.5-0.5
		c0-0.3-0.2-0.5-0.5-0.5h-0.5v1H56.3z"/>
	<polygon class="st11" points="60.9,69.7 59.5,69.7 59.5,71.3 58.6,71.3 58.6,67.3 59.5,67.3 59.5,68.9 60.9,68.9 60.9,67.3 
		61.7,67.3 61.7,71.3 60.9,71.3 	"/>
	<path class="st11" d="M64.9,67.3l1.4,3.9h-0.9l-0.2-0.6h-1.5l-0.2,0.6h-0.9l1.4-3.9H64.9z M65,69.8l-0.5-1.4L64,69.8H65z"/>
	<polygon class="st11" points="66.4,67.3 67.3,67.3 68.2,70.2 69.2,67.3 70.1,67.3 68.7,71.3 67.8,71.3 	"/>
	<polygon class="st11" points="71,67.3 73.2,67.3 73.2,68.1 71.9,68.1 71.9,68.9 73,68.9 73,69.7 71.9,69.7 71.9,70.5 73.2,70.5 
		73.2,71.3 71,71.3 	"/>
	<path class="st11" d="M74.1,70.3l0.7-0.3c0.1,0.3,0.3,0.5,0.7,0.5c0.2,0,0.5-0.1,0.5-0.4c0-0.2-0.1-0.3-0.5-0.5l-0.2-0.1
		c-0.5-0.2-1-0.5-1-1.1c0-0.7,0.5-1.1,1.2-1.1c0.7,0,1.1,0.4,1.2,0.8l-0.6,0.4c-0.2-0.3-0.4-0.4-0.6-0.4c-0.2,0-0.4,0.1-0.4,0.3
		c0,0.2,0.1,0.3,0.5,0.5l0.3,0.1c0.7,0.3,1,0.6,1,1.1c0,0.8-0.7,1.2-1.3,1.2C74.8,71.3,74.3,70.9,74.1,70.3"/>
	<polygon class="st11" points="80,69.7 78.6,69.7 78.6,71.3 77.8,71.3 77.8,67.3 78.6,67.3 78.6,68.9 80,68.9 80,67.3 80.9,67.3 
		80.9,71.3 80,71.3 	"/>
	<path class="st11" d="M83.6,69.3c0-1.2,0.9-2,2-2c0.5,0,1.1,0.2,1.5,0.9l-0.6,0.4c-0.2-0.3-0.5-0.5-0.9-0.5c-0.6,0-1.1,0.4-1.1,1.2
		c0,0.7,0.5,1.2,1.1,1.2c0.4,0,0.8-0.2,0.9-0.7h-0.8v-0.7h1.6c0.2,1.4-0.7,2.2-1.7,2.2C84.5,71.3,83.6,70.5,83.6,69.3"/>
	<path class="st11" d="M89.6,70h-0.5v1.3h-0.8v-3.9h1.4c0.8,0,1.3,0.5,1.3,1.4c0,0.6-0.2,0.9-0.7,1.2l0.9,1.4h-0.9L89.6,70z
		 M89.6,69.3c0.3,0,0.6-0.1,0.6-0.6c0-0.4-0.2-0.6-0.6-0.6h-0.4v1.1H89.6z"/>
	<path class="st11" d="M92,69.3c0-1.2,0.9-2,1.9-2c1.1,0,1.9,0.8,1.9,2s-0.9,2-1.9,2C92.9,71.3,92,70.5,92,69.3 M93.9,70.5
		c0.6,0,1.1-0.5,1.1-1.2s-0.5-1.2-1.1-1.2c-0.6,0-1.1,0.5-1.1,1.2S93.3,70.5,93.9,70.5"/>
	<path class="st11" d="M96.9,69.8v-2.4h0.8v2.4c0,0.6,0.3,0.7,0.6,0.7s0.6-0.1,0.6-0.7v-2.4h0.8v2.4c0,1-0.6,1.5-1.4,1.5
		C97.6,71.3,96.9,70.8,96.9,69.8"/>
	<path class="st11" d="M100.9,67.3h1.4c0.8,0,1.4,0.5,1.4,1.4c0,0.8-0.5,1.4-1.4,1.4h-0.5v1.2h-0.8V67.3z M102.2,69.3
		c0.3,0,0.6-0.1,0.6-0.5c0-0.4-0.3-0.6-0.6-0.6h-0.5v1.1H102.2z"/>
	<rect x="8.7" y="32.6" class="st11" width="21.4" height="6.7"/>
</g>
</svg>
